<?xml version="1.0" encoding="utf-8"?>
<!-- Generator: Adobe Illustrator 19.2.0, SVG Export Plug-In . SVG Version: 6.00 Build 0)  -->
<svg version="1.1" id="Layer_1" xmlns="http://www.w3.org/2000/svg" xmlns:xlink="http://www.w3.org/1999/xlink" x="0px" y="0px"
	 viewBox="0 0 1059.7 176.6" style="enable-background:new 0 0 1059.7 176.6;" xml:space="preserve">
<style type="text/css">
	.st0{fill:#276092;}
</style>
<path class="st0" d="M114.9,46.4L107.5,29h-2.4L99.3,43c-1,2.5-1.9,4.4-2.5,5.9c-0.4,0.7-0.6,1.1-0.8,1.2c-0.2,0.2-0.9,0.3-1.9,0.3
	v1.5c0.9-0.1,2.1-0.1,3.6-0.1c1.6,0,2.9,0,4,0.1v-1.5c-1.3-0.1-2.1-0.2-2.3-0.3c-0.2-0.1-0.3-0.3-0.3-0.5c0-0.2,0-0.4,0.1-0.6
	c0.3-1,0.5-1.7,0.7-2.2l0.7-1.8c1.2,0,2.5,0,4,0c1.7,0,3.2,0,4.5,0l1.1,2.7c0.5,1.2,0.7,1.9,0.7,2.1c0,0.2-0.1,0.4-0.3,0.5
	c-0.2,0.1-1,0.2-2.3,0.2v1.5c1.7-0.1,3.5-0.1,5.4-0.1c1.6,0,3.2,0,5,0.1v-1.5c-1.2-0.1-1.8-0.2-2.1-0.4
	C116.4,49.8,115.8,48.6,114.9,46.4z M104.7,43.1c-1.2,0-2.3,0-3.3-0.1l3.4-8.4l3.5,8.4C107.2,43.1,106,43.1,104.7,43.1z"/>
<path class="st0" d="M119.8,29.1l-0.2,0.1c0.1,1.5,0.2,3.3,0.2,5.4h1.4c0.1-1.8,0.2-2.7,0.3-2.9c0-0.1,0.1-0.2,0.2-0.3
	c0.1-0.1,0.4-0.1,1.1-0.2c0.4,0,0.8,0,1.2-0.1v-2C122.6,29.2,121.2,29.2,119.8,29.1z"/>
<path class="st0" d="M140.7,29.1c-4,0.2-7.6,0.2-10.9,0.2c-1.9,0-3.9,0-5.9-0.1v2c0.8,0,1.7-0.1,2.7-0.1c0.7,0,1.1,0,1.1,0.1
	c0,0.1,0,2.3,0,6.6c0,2.2,0,4.3-0.1,6.4c0,3-0.1,4.7-0.2,5.1c-0.1,0.3-0.2,0.6-0.3,0.7c-0.1,0.1-0.3,0.2-0.7,0.3
	c-0.7,0.1-1.3,0.2-1.9,0.2v1.4c1.5-0.1,3.4-0.1,5.7-0.1c1.8,0,3.5,0,5.1,0.1v-1.4c-1.6-0.1-2.4-0.2-2.6-0.3
	c-0.2-0.1-0.4-0.6-0.4-1.3c-0.1-0.7-0.1-2.7-0.1-5.8l0.1-10.9c0-0.5,0-0.8,0.1-0.9c0-0.1,0.2-0.1,0.4-0.1c2.6,0,4.3,0.1,5.2,0.2
	c0.3,0,0.4,0.1,0.5,0.3c0.1,0.2,0.2,1.2,0.3,3h1.4c0.1-2,0.2-3.7,0.5-5.2L140.7,29.1z"/>
<path class="st0" d="M143.7,51.9V51c0.6-0.3,1.1-0.6,1.6-0.9c0.2-1.7,0.3-5.2,0.3-10.6c0-3.7,0-6.1-0.1-7.4c0-0.6-0.2-1-0.3-1.2
	c-0.2-0.2-1-0.3-2.4-0.4v-1.4c2.6,0.1,4.6,0.1,6.1,0.1l9-0.1c0.9,0,1.8,0,2.6,0.1l0.1,0.2c-0.2,1.2-0.4,2.8-0.5,4.8h-1.3
	c0-1.6-0.1-2.4-0.2-2.5c-0.1-0.1-0.3-0.2-0.8-0.3c-0.9-0.2-2.3-0.3-4.2-0.3c-0.9,0-2,0-3.2,0.1c-0.1,3.3-0.2,6-0.2,8
	c1.2,0.1,2.3,0.1,3.3,0.1c1.5,0,2.4,0,2.7-0.1c0.2-0.1,0.3-0.2,0.4-0.5c0.1-0.2,0.1-0.9,0.2-2.1h1.4c0,1.8-0.1,3-0.1,3.6l0.1,3.7
	h-1.4c-0.1-1.4-0.2-2.3-0.3-2.5c-0.1-0.1-0.2-0.2-0.4-0.3c-0.6-0.1-1.8-0.2-3.7-0.2c-0.6,0-1.3,0-2.1,0.1c0,0.6,0,1.2,0,1.7
	c0,3.1,0.1,5.5,0.2,7.1l3.2,0c1.8,0,3.5-0.1,5.1-0.3c0.3-1,0.5-2.1,0.8-3.4h1.4c-0.3,1.9-0.4,3.8-0.4,5.5c-1,0.1-1.9,0.1-2.9,0.1
	c-0.6,0-1.8,0-3.6-0.1c-1.7,0-3.2-0.1-4.5-0.1C147.6,51.8,145.7,51.8,143.7,51.9"/>
<path class="st0" d="M163,51.9v-1.4c1.3-0.1,2.1-0.1,2.3-0.3c0.2-0.1,0.3-0.2,0.3-0.4c0.1-0.3,0.2-1.2,0.2-2.7
	c0.1-2.6,0.1-4.6,0.1-5.9l0-6.9c0-1.8-0.1-2.9-0.2-3.1c-0.1-0.2-0.2-0.3-0.3-0.4c-0.2-0.1-1-0.3-2.5-0.4v-1.4c1.7,0,3,0.1,3.8,0.1
	c0.9,0,1.9,0,3.1-0.1c2.5,3.2,5.4,6.6,8.5,10.4c2.1,2.5,3.9,4.6,5.5,6.2v-6.5c0-2.4,0-4.6-0.1-6.3c0-1.1-0.1-1.7-0.3-1.9
	c-0.1-0.1-0.2-0.2-0.4-0.3c-0.2,0-0.9-0.1-2.3-0.2v-1.4c1.2,0,2.4,0.1,3.5,0.1c1.6,0,3.1,0,4.4-0.1v1.4c-1.2,0.1-1.9,0.2-2.2,0.3
	c-0.1,0-0.3,0.1-0.3,0.2c-0.1,0.1-0.1,0.2-0.2,0.4c-0.1,0.3-0.1,1.1-0.1,2.5l-0.1,6.5l0,6.5c0,1.8,0,3.5,0.1,5.3l-0.2,0.2
	c-1.3-0.2-2.3-0.4-2.8-0.5c-2.8-3.1-6.2-6.9-10.1-11.6c-2-2.3-3.6-4.3-4.9-5.9v6.3c0,1.7,0,3.8,0.1,6.2c0,1.8,0.1,2.8,0.2,3.1
	c0,0.1,0.1,0.2,0.2,0.3c0.2,0.1,1,0.2,2.3,0.3v1.4c-1.7-0.1-3-0.1-3.8-0.1C166.4,51.8,165.1,51.8,163,51.9"/>
<path class="st0" d="M192,51.9V51c0.6-0.3,1.1-0.6,1.6-0.9c0.2-1.7,0.3-5.2,0.3-10.6c0-3.7,0-6.1-0.1-7.4c0-0.6-0.2-1-0.3-1.2
	c-0.2-0.2-1-0.3-2.4-0.4v-1.4c2.6,0.1,4.6,0.1,6.1,0.1l9-0.1c0.9,0,1.8,0,2.6,0.1l0.1,0.2c-0.2,1.2-0.4,2.8-0.5,4.8H207
	c0-1.6-0.1-2.4-0.2-2.5c-0.1-0.1-0.3-0.2-0.7-0.3c-0.9-0.2-2.3-0.3-4.1-0.3c-0.9,0-2,0-3.2,0.1c-0.1,3.3-0.2,6-0.2,8
	c1.2,0.1,2.3,0.1,3.3,0.1c1.5,0,2.4,0,2.7-0.1c0.2-0.1,0.3-0.2,0.4-0.5c0.1-0.2,0.1-0.9,0.2-2.1h1.4c0,1.8-0.1,3-0.1,3.6l0.1,3.7
	h-1.4c-0.1-1.4-0.2-2.3-0.3-2.5c-0.1-0.1-0.2-0.2-0.4-0.3c-0.6-0.1-1.8-0.2-3.7-0.2c-0.6,0-1.3,0-2.1,0.1c0,0.6,0,1.2,0,1.7
	c0,3.1,0,5.5,0.2,7.1l3.2,0c1.8,0,3.5-0.1,5.1-0.3c0.3-1,0.5-2.1,0.8-3.4h1.4c-0.2,1.9-0.4,3.8-0.4,5.5c-1,0.1-1.9,0.1-2.9,0.1
	c-0.6,0-1.8,0-3.5-0.1c-1.7,0-3.1-0.1-4.5-0.1C195.9,51.8,194,51.8,192,51.9"/>
<path class="st0" d="M223.9,52.2c-4,0-7.1-1-9.2-3.1c-2.1-2.1-3.2-4.9-3.2-8.5c0-2.5,0.5-4.6,1.5-6.4c1-1.8,2.5-3.1,4.3-4.1
	c1.8-0.9,4.2-1.4,7.1-1.4c2.8,0,5,0.5,6.8,1.4c1.8,0.9,3.1,2.2,4.1,3.8c1,1.6,1.4,3.6,1.4,5.9c0,2.5-0.5,4.7-1.6,6.6
	c-1,1.8-2.5,3.3-4.4,4.3C228.9,51.7,226.6,52.2,223.9,52.2 M224.5,50.5c2.2,0,3.9-0.8,5.2-2.4c1.3-1.6,2-4.1,2-7.3
	c0-3.5-0.8-6.1-2.3-7.9c-1.2-1.5-3.1-2.2-5.6-2.2c-2.3,0-4.2,0.8-5.5,2.3c-1.3,1.5-1.9,3.9-1.9,7.1c0,2.3,0.3,4.3,1.1,5.9
	c0.7,1.6,1.6,2.8,2.7,3.5C221.4,50.1,222.8,50.5,224.5,50.5"/>
<path class="st0" d="M247.6,51.9v-1.4c1.5-0.1,2.4-0.2,2.5-0.4c0.2-0.2,0.3-0.6,0.4-1.3c0.1-1.4,0.1-4.1,0.1-8c0-1.5,0-3.6-0.1-6.5
	c0-1.9,0-3-0.1-3.2c-0.1-0.2-0.2-0.3-0.3-0.4c-0.3-0.1-1.1-0.2-2.5-0.3v-1.4c2.3,0.1,4,0.1,5.2,0.1c2,0,3.9,0,5.6-0.1v1.4
	c-1.5,0.1-2.3,0.2-2.5,0.3c-0.2,0.1-0.3,0.5-0.4,1c-0.1,1-0.1,3.1-0.1,6.3c0,4.2,0,7.2,0,8.8c0,1.7,0.1,2.7,0.3,3
	c0,0.1,0.2,0.3,0.4,0.3c0.2,0.1,1,0.2,2.3,0.3v1.4l-1.9-0.1c-1.2,0-2.3-0.1-3.3-0.1L247.6,51.9z"/>
<path class="st0" d="M260.6,51.9v-1.4c1.3-0.1,2.1-0.1,2.3-0.3c0.2-0.1,0.3-0.2,0.3-0.4c0.1-0.3,0.2-1.2,0.2-2.7
	c0.1-2.6,0.1-4.6,0.1-5.9l0-6.9c0-1.8-0.1-2.9-0.2-3.1c-0.1-0.2-0.2-0.3-0.3-0.4c-0.2-0.1-1.1-0.3-2.5-0.4v-1.4c1.7,0,3,0.1,3.8,0.1
	c0.9,0,1.9,0,3.1-0.1c2.5,3.2,5.4,6.6,8.5,10.4c2.1,2.5,3.9,4.6,5.5,6.2v-6.5c0-2.4,0-4.6-0.1-6.3c0-1.1-0.1-1.7-0.3-1.9
	c-0.1-0.1-0.2-0.2-0.4-0.3c-0.2,0-0.9-0.1-2.3-0.2v-1.4c1.2,0,2.4,0.1,3.5,0.1c1.6,0,3.1,0,4.4-0.1v1.4c-1.2,0.1-1.9,0.2-2.2,0.3
	c-0.1,0-0.3,0.1-0.3,0.2c-0.1,0.1-0.1,0.2-0.2,0.4c-0.1,0.3-0.1,1.1-0.1,2.5l-0.1,6.5l0,6.5c0,1.8,0,3.5,0.1,5.3l-0.2,0.2
	c-1.3-0.2-2.3-0.4-2.8-0.5c-2.8-3.1-6.2-6.9-10.1-11.6c-2-2.3-3.6-4.3-4.9-5.9v6.3c0,1.7,0,3.8,0.1,6.2c0,1.8,0.1,2.8,0.2,3.1
	c0,0.1,0.1,0.2,0.2,0.3c0.2,0.1,1,0.2,2.4,0.3v1.4c-1.8-0.1-3-0.1-3.8-0.1C264,51.8,262.7,51.8,260.6,51.9"/>
<path class="st0" d="M292.9,51.9v-1.4c0.6,0,1.3-0.1,1.9-0.2c0.3-0.1,0.5-0.2,0.7-0.3c0.1-0.1,0.2-0.3,0.3-0.7
	c0.1-0.5,0.1-2.2,0.2-5.1c0-2.1,0.1-4.2,0.1-6.4c0-4.3,0-6.5,0-6.6c0-0.1-0.4-0.1-1.2-0.1c-1.5,0-2.8,0-3.9,0.1
	c-0.6,0.1-1,0.1-1.1,0.2c-0.1,0.1-0.2,0.1-0.2,0.3c-0.1,0.1-0.1,1.1-0.3,2.9H288c0-2.1,0-3.9-0.2-5.4l0.2-0.1
	c3.4,0.2,6.8,0.2,10,0.2c3.2,0,6.9-0.1,10.9-0.2l0.2,0.3c-0.2,1.5-0.4,3.2-0.4,5.2h-1.4c-0.1-1.8-0.2-2.8-0.3-3
	c-0.1-0.1-0.3-0.2-0.5-0.3c-0.9-0.1-2.6-0.2-5.2-0.2c-0.2,0-0.4,0-0.4,0.1c0,0.1-0.1,0.4-0.1,0.9l-0.1,10.9c0,3.2,0,5.1,0.1,5.8
	c0.1,0.7,0.2,1.2,0.4,1.3c0.1,0.1,1,0.2,2.6,0.3v1.4c-1.6-0.1-3.3-0.1-5.1-0.1C296.3,51.8,294.4,51.8,292.9,51.9"/>
<path class="st0" d="M311.9,51.9V51c0.6-0.3,1.1-0.6,1.6-0.9c0.2-1.7,0.3-5.2,0.3-10.6c0-3.7,0-6.1-0.1-7.4c0-0.6-0.1-1-0.3-1.2
	c-0.2-0.2-1-0.3-2.4-0.4v-1.4c2.6,0.1,4.6,0.1,6.1,0.1l9-0.1c1,0,1.8,0,2.6,0.1l0.1,0.2c-0.2,1.2-0.4,2.8-0.5,4.8h-1.3
	c-0.1-1.6-0.1-2.4-0.2-2.5c-0.1-0.1-0.3-0.2-0.7-0.3c-0.9-0.2-2.3-0.3-4.2-0.3c-0.9,0-2,0-3.2,0.1c-0.1,3.3-0.2,6-0.2,8
	c1.1,0.1,2.3,0.1,3.3,0.1c1.5,0,2.4,0,2.7-0.1c0.2-0.1,0.3-0.2,0.4-0.5c0.1-0.2,0.1-0.9,0.2-2.1h1.4c0,1.8-0.1,3-0.1,3.6l0.1,3.7
	H325c-0.1-1.4-0.2-2.3-0.3-2.5c-0.1-0.1-0.2-0.2-0.4-0.3c-0.5-0.1-1.8-0.2-3.7-0.2c-0.6,0-1.3,0-2.1,0.1c0,0.6,0,1.2,0,1.7
	c0,3.1,0.1,5.5,0.2,7.1l3.2,0c1.8,0,3.5-0.1,5.1-0.3c0.3-1,0.5-2.1,0.8-3.4h1.4c-0.3,1.9-0.4,3.8-0.5,5.5c-1,0.1-1.9,0.1-2.8,0.1
	c-0.6,0-1.8,0-3.6-0.1c-1.6,0-3.2-0.1-4.5-0.1C315.8,51.8,313.9,51.8,311.9,51.9"/>
<path class="st0" d="M331.3,51.9v-1.4c1.3-0.1,2-0.2,2.2-0.3c0.1-0.1,0.2-0.2,0.3-0.3c0.1-0.3,0.2-1.1,0.2-2.6
	c0-2.3,0.1-4.1,0.1-5.5c0-1.8,0-4.1-0.1-6.9c0-2-0.2-3.3-0.3-3.8c0-0.1-0.1-0.2-0.3-0.3c-0.2-0.1-0.9-0.2-2.1-0.4v-1.4
	c2.3,0.1,3.7,0.1,4.4,0.1l8.2-0.1c1.8,0,3.1,0.2,3.9,0.5c0.8,0.3,1.5,0.9,1.9,1.6c0.5,0.8,0.7,1.6,0.7,2.6c0,1.3-0.4,2.4-1.1,3.4
	c-0.8,1-2.1,1.8-3.9,2.6l3.5,5.2l2.7,4c0.5,0.7,0.9,1.1,1.2,1.2c0.2,0.1,0.7,0.2,1.2,0.2v1.2l-1,0c-2.8,0-4.5,0-5.3,0.1
	c-0.9-1.5-2.4-3.7-4.2-6.5l-3.4-5.1c0.1-0.2,0.2-0.4,0.3-0.6c0.4,0.1,0.8,0.1,1,0.1c1,0,2-0.4,3-1.2c1-0.8,1.5-2,1.5-3.5
	c0-1.3-0.4-2.3-1.2-3.1c-0.8-0.7-1.9-1.1-3.5-1.1c-0.5,0-1.1,0-2,0.1l-0.1,4.8l-0.1,6.1c0,1.4,0,3.2,0.2,5.3
	c0.1,1.6,0.2,2.5,0.3,2.7c0.1,0.1,0.2,0.3,0.4,0.3c0.2,0.1,1,0.2,2.2,0.3v1.4c-2-0.1-3.7-0.1-5.2-0.1
	C334.9,51.8,333.1,51.8,331.3,51.9"/>
<path class="st0" d="M355.4,51.9v-1.4c1.3-0.1,2.1-0.1,2.3-0.3c0.2-0.1,0.3-0.2,0.3-0.4c0.1-0.3,0.2-1.2,0.2-2.7
	c0.1-2.6,0.1-4.6,0.1-5.9l0-6.9c0-1.8-0.1-2.9-0.2-3.1c0-0.2-0.2-0.3-0.3-0.4c-0.2-0.1-1-0.3-2.5-0.4v-1.4c1.7,0,3,0.1,3.8,0.1
	c0.9,0,1.9,0,3.1-0.1c2.5,3.2,5.4,6.6,8.5,10.4c2.1,2.5,3.9,4.6,5.5,6.2v-6.5c0-2.4,0-4.6-0.1-6.3c0-1.1-0.1-1.7-0.3-1.9
	c-0.1-0.1-0.2-0.2-0.4-0.3c-0.2,0-0.9-0.1-2.3-0.2v-1.4c1.2,0,2.4,0.1,3.5,0.1c1.6,0,3.1,0,4.4-0.1v1.4c-1.2,0.1-1.9,0.2-2.2,0.3
	c-0.2,0-0.3,0.1-0.3,0.2c-0.1,0.1-0.1,0.2-0.2,0.4c-0.1,0.3-0.1,1.1-0.1,2.5l-0.1,6.5l0,6.5c0,1.8,0,3.5,0.1,5.3l-0.2,0.2
	c-1.3-0.2-2.3-0.4-2.8-0.5c-2.8-3.1-6.2-6.9-10.2-11.6c-2-2.3-3.6-4.3-4.9-5.9v6.3c0,1.7,0,3.8,0.1,6.2c0,1.8,0.1,2.8,0.2,3.1
	c0,0.1,0.1,0.2,0.2,0.3c0.2,0.1,1,0.2,2.4,0.3v1.4c-1.8-0.1-3-0.1-3.8-0.1C358.8,51.8,357.5,51.8,355.4,51.9"/>
<path class="st0" d="M383.2,50.4c1,0,1.6-0.2,1.9-0.3c0.2-0.1,0.4-0.5,0.8-1.2c0.7-1.4,1.5-3.4,2.5-5.9l5.8-14.1h2.4l7.4,17.4
	c0.9,2.2,1.5,3.4,1.8,3.6c0.2,0.2,0.9,0.3,2.1,0.4v1.5c-1.8-0.1-3.5-0.1-5-0.1c-1.9,0-3.7,0-5.4,0.1v-1.5c1.3,0,2.1-0.1,2.3-0.2
	c0.2-0.1,0.3-0.3,0.3-0.5c0-0.2-0.2-0.9-0.7-2.1l-1.1-2.7c-1.4,0-2.9,0-4.5,0c-1.5,0-2.8,0-4,0l-0.7,1.8c-0.2,0.5-0.4,1.2-0.7,2.2
	c-0.1,0.2-0.1,0.4-0.1,0.6c0,0.2,0.1,0.4,0.3,0.5c0.2,0.1,1,0.2,2.3,0.3v1.5c-1.1-0.1-2.4-0.1-4-0.1c-1.5,0-2.7,0-3.6,0.1V50.4z
	 M393.9,34.7l-3.5,8.4c1,0,2.1,0.1,3.3,0.1c1.2,0,2.5,0,3.6-0.1L393.9,34.7z"/>
<path class="st0" d="M409,51.9v-1.3c3.6-4.5,8.2-11,13.8-19.3l-4.1,0c-2.2,0-3.8,0-5,0.1c-0.5,0-0.8,0.1-1,0.3
	c-0.1,0.1-0.3,0.7-0.4,1.8l-0.2,1.1h-1.3c0-0.8,0-1.7,0.1-2.7l0-1c0-0.4,0-1-0.1-1.5l0.2-0.1c2.3,0.1,4.4,0.2,6.2,0.2
	c6.9,0,10.8,0,12,0v1.2c-4.9,6.5-9.5,13-13.9,19.4c2.2,0.1,4.3,0.1,6.2,0.1c2,0,3.6-0.1,4.7-0.2c0.3,0,0.5-0.1,0.7-0.3
	c0.1-0.2,0.4-1,0.7-2.5l0.2-0.8h1.4c-0.3,1.6-0.5,3.5-0.6,5.7c-0.6,0-1.3,0.1-1.9,0.1l-12.3-0.2C413.6,51.8,411.7,51.8,409,51.9"/>
<path class="st0" d="M431.7,51.9v-1.4c1.5-0.1,2.3-0.2,2.5-0.4c0.2-0.2,0.3-0.6,0.4-1.3c0.1-1.4,0.1-4.1,0.1-8c0-1.5,0-3.6-0.1-6.5
	c0-1.9-0.1-3-0.1-3.2c-0.1-0.2-0.2-0.3-0.4-0.4c-0.2-0.1-1.1-0.2-2.5-0.3v-1.4c2.3,0.1,4,0.1,5.2,0.1c2.1,0,3.9,0,5.6-0.1v1.4
	c-1.5,0.1-2.3,0.2-2.5,0.3c-0.2,0.1-0.3,0.5-0.4,1c-0.1,1-0.1,3.1-0.1,6.3c0,4.2,0,7.2,0,8.8c0,1.7,0.1,2.7,0.3,3
	c0.1,0.1,0.2,0.3,0.4,0.3c0.2,0.1,1,0.2,2.3,0.3v1.4l-1.9-0.1c-1.2,0-2.3-0.1-3.3-0.1L431.7,51.9z"/>
<path class="st0" d="M457.3,52.2c-4,0-7.1-1-9.2-3.1c-2.1-2.1-3.2-4.9-3.2-8.5c0-2.5,0.5-4.6,1.6-6.4c1-1.8,2.5-3.1,4.3-4.1
	c1.8-0.9,4.2-1.4,7.1-1.4c2.8,0,5,0.5,6.8,1.4c1.8,0.9,3.1,2.2,4.1,3.8c1,1.6,1.5,3.6,1.5,5.9c0,2.5-0.5,4.7-1.6,6.6
	c-1,1.8-2.5,3.3-4.4,4.3C462.2,51.7,459.9,52.2,457.3,52.2 M457.9,50.5c2.2,0,3.9-0.8,5.2-2.4c1.3-1.6,1.9-4.1,1.9-7.3
	c0-3.5-0.7-6.1-2.2-7.9c-1.2-1.5-3.1-2.2-5.6-2.2c-2.4,0-4.2,0.8-5.5,2.3c-1.3,1.5-1.9,3.9-1.9,7.1c0,2.3,0.3,4.3,1.1,5.9
	c0.7,1.6,1.6,2.8,2.7,3.5C454.7,50.1,456.1,50.5,457.9,50.5"/>
<path class="st0" d="M472.5,51.9v-1.4c1.3-0.1,2.1-0.1,2.3-0.3c0.2-0.1,0.3-0.2,0.3-0.4c0.1-0.3,0.2-1.2,0.2-2.7
	c0.1-2.6,0.1-4.6,0.1-5.9l0-6.9c0-1.8-0.1-2.9-0.2-3.1c-0.1-0.2-0.2-0.3-0.3-0.4c-0.2-0.1-1-0.3-2.5-0.4v-1.4c1.7,0,3,0.1,3.8,0.1
	c0.9,0,1.9,0,3.1-0.1c2.5,3.2,5.4,6.6,8.5,10.4c2.1,2.5,3.9,4.6,5.4,6.2v-6.5c0-2.4,0-4.6-0.1-6.3c0-1.1-0.1-1.7-0.3-1.9
	c-0.1-0.1-0.2-0.2-0.4-0.3c-0.2,0-0.9-0.1-2.3-0.2v-1.4c1.2,0,2.3,0.1,3.5,0.1c1.6,0,3.1,0,4.4-0.1v1.4c-1.2,0.1-1.9,0.2-2.2,0.3
	c-0.1,0-0.2,0.1-0.3,0.2c-0.1,0.1-0.2,0.2-0.2,0.4c-0.1,0.3-0.1,1.1-0.1,2.5l-0.1,6.5l0,6.5c0,1.8,0,3.5,0.1,5.3l-0.2,0.2
	c-1.3-0.2-2.3-0.4-2.8-0.5c-2.8-3.1-6.2-6.9-10.1-11.6c-2-2.3-3.6-4.3-4.9-5.9v6.3c0,1.7,0,3.8,0.1,6.2c0.1,1.8,0.1,2.8,0.2,3.1
	c0,0.1,0.1,0.2,0.2,0.3c0.2,0.1,1,0.2,2.4,0.3v1.4c-1.8-0.1-3-0.1-3.8-0.1C475.9,51.8,474.6,51.8,472.5,51.9"/>
<path class="st0" d="M500.3,50.4c1,0,1.7-0.2,1.9-0.3c0.2-0.1,0.4-0.5,0.8-1.2c0.7-1.4,1.5-3.4,2.6-5.9l5.8-14.1h2.4l7.4,17.4
	c1,2.2,1.6,3.4,1.8,3.6c0.2,0.2,0.9,0.3,2.1,0.4v1.5c-1.8-0.1-3.5-0.1-5-0.1c-1.9,0-3.7,0-5.4,0.1v-1.5c1.3,0,2-0.1,2.2-0.2
	c0.2-0.1,0.3-0.3,0.3-0.5c0-0.2-0.2-0.9-0.7-2.1l-1.1-2.7c-1.4,0-2.9,0-4.5,0c-1.5,0-2.8,0-4,0l-0.7,1.8c-0.2,0.5-0.4,1.2-0.7,2.2
	c-0.1,0.2-0.1,0.4-0.1,0.6c0,0.2,0.1,0.4,0.3,0.5c0.2,0.1,1,0.2,2.3,0.3v1.5c-1.1-0.1-2.4-0.1-4-0.1c-1.5,0-2.7,0-3.6,0.1V50.4z
	 M511,34.7l-3.4,8.4c1,0,2.1,0.1,3.3,0.1c1.3,0,2.5,0,3.6-0.1L511,34.7z"/>
<path class="st0" d="M527.5,51.9v-0.8c0.6-0.3,1.2-0.6,1.7-1c0.1-2.9,0.2-6,0.2-9.2c0-2.5,0-4.9-0.1-7.1c0-1.6-0.1-2.5-0.2-2.7
	c0-0.1-0.1-0.2-0.3-0.3c-0.2-0.1-1-0.2-2.4-0.3v-1.4c2.1,0,4,0.1,5.8,0.1c1.7,0,3.4,0,5-0.1v1.4c-1.5,0.1-2.4,0.2-2.6,0.4
	c-0.1,0.1-0.2,0.3-0.3,0.6c-0.1,0.3-0.1,2.1-0.1,5.3l-0.1,7.9c0,1.5,0,3.2,0.1,5.2c1.4,0.1,2.5,0.1,3.2,0.1c2,0,3.8-0.2,5.2-0.5
	c0.3-1,0.6-2.1,0.9-3.5h1.4c-0.2,1.6-0.4,3.5-0.7,5.9c-1,0.1-2,0.1-2.8,0.1l-5.9-0.1l-2.7,0C531.5,51.8,529.8,51.8,527.5,51.9"/>
<path class="st0" d="M548,51.9V51c0.6-0.3,1.1-0.6,1.6-0.9c0.2-1.7,0.3-5.2,0.3-10.6c0-3.7,0-6.1-0.1-7.4c0-0.6-0.1-1-0.3-1.2
	c-0.2-0.2-1-0.3-2.4-0.4v-1.4c2.6,0.1,4.6,0.1,6.1,0.1l9-0.1c0.9,0,1.8,0,2.6,0.1l0.1,0.2c-0.3,1.2-0.4,2.8-0.5,4.8H563
	c0-1.6-0.1-2.4-0.2-2.5c0-0.1-0.3-0.2-0.7-0.3c-0.9-0.2-2.3-0.3-4.2-0.3c-0.9,0-2,0-3.2,0.1c-0.1,3.3-0.2,6-0.2,8
	c1.2,0.1,2.3,0.1,3.3,0.1c1.5,0,2.4,0,2.7-0.1c0.2-0.1,0.3-0.2,0.4-0.5c0.1-0.2,0.1-0.9,0.2-2.1h1.4c0,1.8-0.1,3-0.1,3.6l0.1,3.7
	h-1.4c-0.1-1.4-0.2-2.3-0.3-2.5c-0.1-0.1-0.2-0.2-0.5-0.3c-0.5-0.1-1.8-0.2-3.7-0.2c-0.6,0-1.3,0-2.1,0.1c0,0.6,0,1.2,0,1.7
	c0,3.1,0,5.5,0.1,7.1l3.3,0c1.8,0,3.5-0.1,5.1-0.3c0.3-1,0.5-2.1,0.8-3.4h1.4c-0.2,1.9-0.4,3.8-0.4,5.5c-1,0.1-1.9,0.1-2.9,0.1
	c-0.6,0-1.8,0-3.5-0.1c-1.6,0-3.2-0.1-4.5-0.1C551.9,51.8,550,51.8,548,51.9"/>
<path class="st0" d="M426.5,145.6h-10.7c0,0,5.1,0,5.1-6.6v-31.8c0-8.7-5.1-8.7-5.1-8.7h10.7v7.2c0,0,3.2-7.4,9.7-7.4
	c10.3,0,11.8,11.2,11.7,15.5c-0.1,2-6,2-6,2s-0.4-12.6-8.3-12.6c-2.5,0-7.2,4.6-7.2,4.6v14.5c0,0,0,7.3,7.4,7.3
	c1.2,0,8.1-0.3,8.1-13.7c0,0,5.8-5.9,6-2c-0.4,14.9-10.7,17.7-13.9,17.7c-5.1,0-7.5-3-7.5-3V145.6z"/>
<path class="st0" d="M471.4,126.2c-11.5,0-11.3-15.1-11.3-15.1h21.7l0.1,0c-1-9.6-6.7-12.8-13.2-12.8c-7.4,0-13.4,7.5-13.4,16.7
	c0,9.2,5.3,16.8,13.5,16.8c6.9,0,11.4-5.3,12.8-12.4l-1-0.4C480.7,118.9,476.6,126.2,471.4,126.2 M467.3,100.7
	c7.6,0,7.3,8.4,7.3,8.4h-14.5C460.1,105.2,463.5,100.7,467.3,100.7"/>
<path class="st0" d="M481.6,119.4C481.6,119.4,481.6,119.3,481.6,119.4L481.6,119.4C481.6,119.3,481.6,119.3,481.6,119.4"/>
<path class="st0" d="M497.7,131.4H487c0,0,4.7-0.1,4.7-6.7v-20.3c0-6.1-4.7-6.1-4.7-6.1h10.7v5.3c6.8-6.9,12.2-4.5,12.2-4.5v2.5
	c0,0-10.2-1.6-12.2,9.1V131.4z"/>
<path class="st0" d="M583.2,123.9c0,0-0.2,7.5,6.1,7.5s8.4-7,8.4-7h-1.3c0,0-1,3-4.1,3c-3.1,0-3.3-4.2-3.3-4.2v-22.6h6.3v-2.5h-6.3
	V87.3h-5.7c0,13.2-6.4,13.3-6.4,13.3l6.4-0.1V123.9z"/>
<path class="st0" d="M676.3,131.4h-10.1c0,0,4,0,4-4.9v-23.1c0-5.1-4-5.1-4-5.1h10.1v6.9c0,0,5.2-6.9,10.5-6.9
	c8.3,0,8.3,9.8,8.3,9.8v23.3h-5.3h-4.6c0,0,4.3,0,4.3-4.9v-17.7c0,0,0.5-6.3-4.9-6.3c-4.1,0-8.3,4.1-8.3,4.8V131.4z"/>
<path class="st0" d="M715.9,131.4h-10.1c0,0,4,0,4-4.9v-23.1c0-5.1-4-5.1-4-5.1h10.1v6.9v2.1V131.4z"/>
<path class="st0" d="M796.4,131.4h-10.1c0,0,4,0,4-4.9v-23.1c0-5.1-4-5.1-4-5.1h10.1v6.9v2.1V131.4z"/>
<path class="st0" d="M741.4,125.8c-11.5,0-11.3-15.1-11.3-15.1h21.7h0.1c-1-9.6-6.7-12.8-13.2-12.8c-7.4,0-13.4,7.5-13.4,16.7
	c0,9.2,5.3,16.8,13.5,16.8c6.9,0,11.4-5.3,12.8-12.4l-1-0.4C750.7,118.6,746.6,125.8,741.4,125.8 M737.4,100.4
	c7.6,0,7.3,8.4,7.3,8.4h-14.5C730.1,104.8,733.5,100.4,737.4,100.4"/>
<path class="st0" d="M751.6,119C751.6,119,751.6,119,751.6,119C751.6,119,751.6,119,751.6,119"/>
<path class="st0" d="M715.9,89.4c0-1.7-1.4-3.1-3-3.1c-1.7,0-3,1.4-3,3.1c0,1.7,1.4,3.1,3,3.1C714.6,92.4,715.9,91.1,715.9,89.4"/>
<path class="st0" d="M796.4,89.4c0-1.7-1.4-3.1-3-3.1c-1.7,0-3,1.4-3,3.1c0,1.7,1.4,3.1,3,3.1C795,92.4,796.4,91,796.4,89.4"/>
<path class="st0" d="M613.9,131.4h-10.6c0,0,4.7-0.1,4.7-6.7v-20.3c0-6.1-4.7-6.1-4.7-6.1h10.6v5.3c6.8-6.9,12.2-4.5,12.2-4.5v2.5
	c0,0-10.2-1.6-12.2,9.1V131.4z"/>
<path class="st0" d="M768.5,131.4h-10.7c0,0,4.7-0.1,4.7-6.7v-20.3c0-6.1-4.7-6.1-4.7-6.1h10.7v5.3c6.8-6.9,12.2-4.5,12.2-4.5v2.5
	c0,0-10.2-1.6-12.2,9.1V131.4z"/>
<path class="st0" d="M660.6,127.3c0,0-0.5,4.1-7,4.1c-4.5,0-4.1-4.7-4.1-4.7s-2.7,4.7-7.5,4.7h-3.7c0,0-6.6,0-6.6-9.7
	c0-9.6,10.4-9.8,10.4-9.8l7.5,0.1c0,0,1.4-11.6-6.2-11.6c-4.8,0-7.4,3.2-7.4,3.2l-0.8-2.1c0,0,1.7-3.2,8.4-3.2
	c12.2,0,11.7,10.1,11.7,10.1s0.1,6,0.1,14.5s5.5,2,5.5,2V127.3z M643.4,127.9c2.9,0,6-3.4,6-3.4v-9h-6c-0.9,0-6.1,0-6.1,6
	C637.4,129.1,643.4,127.9,643.4,127.9"/>
<path class="st0" d="M567.6,81.2c0,0-0.7,0-14.5,0c-13.8,0-14.5,12.1-14.5,13.5c0,10.9,12.1,14.5,14.8,15.9
	c2.7,1.5,10.1,4.4,10.1,10.2c0,5.8-5.8,8.2-8.7,8.2c-15.9,0-15.9-14.8-15.9-14.8v17c0,0,13.1,0.2,17.9,0.2c9.1,0,14.5-7.2,14.5-13.4
	c0-6.5-3.5-11.1-15.4-16.5c-6.1-2.8-10.8-6.1-10.8-10.4c0,0-0.3-6.7,8.1-6.8c14.5,0,14.5,12.5,14.5,12.5V81.2z"/>
<path class="st0" d="M1003.4,131.4h-10.1c0,0,4,0,4-4.9v-23.1c0-5.1-4-5.1-4-5.1h10.1v6.9c0,0,5.2-6.9,10.5-6.9
	c8.3,0,8.3,9.8,8.3,9.8v23.3h-5.3h-4.6c0,0,4.3,0,4.3-4.9v-17.7c0,0,0.5-6.3-4.9-6.3c-4.1,0-8.3,4.1-8.3,4.8V131.4z"/>
<path class="st0" d="M949.6,131.4h-10.1c0,0,4,0,4-4.9v-23.1c0-5.1-4-5.1-4-5.1h10.1v6.9v2.1V131.4z"/>
<path class="st0" d="M949.6,90.4c0-1.7-1.4-3.1-3-3.1c-1.7,0-3.1,1.4-3.1,3.1c0,1.7,1.4,3.1,3.1,3.1
	C948.2,93.5,949.6,92.1,949.6,90.4"/>
<path class="st0" d="M974.1,125.8c-11.5,0-11.3-15-11.3-15h21.9c-1-9.6-6.6-12.8-13.2-12.8c-7.4,0-13.4,7.4-13.4,16.6
	c0,9.2,5.3,16.8,13.5,16.8c6.8,0,11.4-5.3,12.8-12.4l-1-0.4C983.3,118.6,979.3,125.8,974.1,125.8 M970,100.4c7.6,0,7.3,8.4,7.3,8.4
	h-14.6C962.7,104.8,966.2,100.4,970,100.4"/>
<path class="st0" d="M1059.7,127.3c0,0-0.5,4.1-7,4.1c-4.6,0-4.1-4.7-4.1-4.7s-2.7,4.7-7.5,4.7h-3.7c0,0-6.6,0-6.6-9.7
	c0-9.6,10.4-9.8,10.4-9.8l7.5,0.1c0,0,1.4-11.6-6.2-11.6c-4.8,0-7.5,3.2-7.5,3.2l-0.8-2.1c0,0,1.7-3.2,8.4-3.2
	c12.3,0,11.7,10.1,11.7,10.1s0.1,6,0.1,14.5c0,8.5,5.5,2,5.5,2V127.3z M1042.5,127.9c2.9,0,6-3.4,6-3.4v-9h-6c-0.9,0-6.1,0-6.1,6
	C1036.5,129.1,1042.5,127.9,1042.5,127.9"/>
<path class="st0" d="M927.6,82.1c0,0-0.7,0-14.2,0c-13.6,0-14.3,11.9-14.3,13.2c0,10.7,11.9,14.2,14.6,15.7c2.7,1.4,9.9,4.3,9.9,10
	c0,5.8-5.7,8.1-8.6,8.1c-15.6,0-15.6-14.6-15.6-14.6v16.7c0,0,12.8,0.2,17.6,0.2c8.9,0,14.2-7.1,14.2-13.2c0-6.3-3.4-10.9-15.1-16.2
	c-6-2.7-10.6-6-10.6-10.2c0,0-0.3-6.6,7.9-6.7c14.2,0,14.3,12.3,14.3,12.3V82.1z"/>
<path class="st0" d="M842.5,84.2h9.6v6.6v31.8c0,8.7,5.1,8.7,5.1,8.7h-10.7V124c0,0-3.2,7.4-9.7,7.4c-10.3,0-11.8-11.2-11.7-15.5
	c0-2,6-2,6-2s0.4,12.6,8.3,12.6c2.5,0,7.2-4.6,7.2-4.6v-14.5c0,0,0-7.3-7.4-7.3c-1.2,0-8.1,0.3-8.1,13.7c0,0-5.9,5.9-6,2
	c0.4-14.9,10.7-17.7,14-17.7c5.1,0,7.5,3,7.5,3V90.8C846.5,84.2,842.5,84.2,842.5,84.2"/>
<path class="st0" d="M870.4,131.4h-10.1c0,0,4,0,4-4.9v-23.1c0-5.1-4-5.1-4-5.1h10.1v6.9v2.1V131.4z"/>
<path class="st0" d="M870.4,90.4c0-1.7-1.4-3.1-3-3.1c-1.7,0-3,1.4-3,3.1c0,1.7,1.4,3.1,3,3.1C869,93.5,870.4,92.1,870.4,90.4"/>
<path class="st0" d="M328.5,89.4c0-1.7-1.4-3.1-3-3.1c-1.7,0-3.1,1.4-3.1,3.1c0,1.7,1.4,3.1,3.1,3.1
	C327.1,92.5,328.5,91.1,328.5,89.4"/>
<path class="st0" d="M189.2,89.4c0-1.7-1.4-3.1-3-3.1c-1.7,0-3.1,1.4-3.1,3.1c0,1.7,1.4,3.1,3.1,3.1
	C187.8,92.5,189.2,91.1,189.2,89.4"/>
<path class="st0" d="M328.5,129.9h-10.1c0,0,4,0,4-4.9v-23.1c0-5.1-4-5.1-4-5.1h10.1v6.9v2.1V129.9z"/>
<path class="st0" d="M189.2,129.9h-10.1c0,0,4,0,4-4.9v-23.1c0-5.1-4-5.1-4-5.1h10.1v6.9v2.1V129.9z"/>
<path class="st0" d="M153.9,129.9h-10.1c0,0,4,0,4-4.9v-23.1c0-5.1-4-5.1-4-5.1h10.1v6.9c0,0,5.2-6.9,10.5-6.9
	c8.3,0,8.3,9.8,8.3,9.8v23.3h-5.3h-4.5c0,0,4.3,0,4.3-4.9v-17.7c0,0,0.4-6.3-4.9-6.3c-4.1,0-8.3,4.1-8.3,4.8V129.9z"/>
<path class="st0" d="M137.5,111.2V93.1V81.2h-9.9c0,0,6.9,0,6.9,8.8v21.2c0,0,0.9,13.6-10.4,15.6v2.7
	C139.6,126.9,137.5,111.2,137.5,111.2z"/>
<path class="st0" d="M121.1,127c-14.4,0-13.3-15.8-13.3-15.8l-0.1-30H94.1c0,0,7,0,7,9.7v20.4c0,0-2.5,18.7,18.2,18.7
	c1.7,0,3.3-0.1,4.7-0.4v-2.7C123.1,126.9,122.1,127,121.1,127z"/>
<path class="st0" d="M273.9,129.9h-10.7c0,0,4.7-0.1,4.7-6.7v-20.3c0-6.1-4.7-6.1-4.7-6.1h10.7v5.3c6.8-6.9,12.2-4.5,12.2-4.5v2.5
	c0,0-10.2-1.6-12.2,9.1V129.9z"/>
<path class="st0" d="M311.6,96.8c0,0-0.5,0-9.6,0c-9.1,0-9.6,8-9.6,8.9c0,7.2,8,9.6,9.8,10.5c1.8,1,6.6,2.9,6.6,6.7
	c0,3.9-3.8,5.4-5.8,5.4c-10.5,0-10.5-9.8-10.5-9.8v11.2c0,0,8.6,0.1,11.8,0.1c6,0,9.5-4.8,9.5-8.8c0-4.3-2.3-7.3-10.1-10.9
	c-4-1.8-7.1-4-7.1-6.8c0,0-0.2-4.4,5.3-4.5c9.5,0,9.6,8.2,9.6,8.2V96.8z"/>
<path class="st0" d="M339.3,122.3c0,0-0.2,7.5,6.1,7.5c6.2,0,8.4-7,8.4-7h-1.4c0,0-1,3-4,3c-3.1,0-3.3-4.2-3.3-4.2V99.1h6.2v-2.5
	h-6.2V85.8h-5.7c0,13.2-6.4,13.3-6.4,13.3l6.4-0.1V122.3z"/>
<path class="st0" d="M213.4,129.9H212l-11.2-26.8c-2.5-6.3-5.4-6.3-5.4-6.3h8.9l9.1,24.6l8.5-19.6c1.5-4.8-3.3-5-3.3-5h8.6
	L213.4,129.9z"/>
<path class="st0" d="M387.1,125.7c0,0-0.5,4.1-7,4.1c-4.5,0-4.1-4.6-4.1-4.6s-2.7,4.6-7.5,4.6h-3.7c0,0-6.6,0-6.6-9.7
	c0-9.7,10.4-9.8,10.4-9.8l7.5,0.1c0,0,1.4-11.6-6.2-11.6c-4.8,0-7.5,3.2-7.5,3.2l-0.8-2.1c0,0,1.7-3.2,8.4-3.2
	c12.3,0,11.7,10.1,11.7,10.1s0.1,6,0.1,14.5c0,8.5,5.5,2,5.5,2V125.7z M369.9,126.3c2.9,0,6-3.4,6-3.4v-9h-6c-0.9,0-6.1,0-6.1,6
	C363.9,127.6,369.9,126.3,369.9,126.3"/>
<path class="st0" d="M247.6,124.6c-11.5,0-11.3-15-11.3-15H258l0.1,0c-1-9.6-6.7-12.7-13.2-12.7c-7.4,0-13.4,7.5-13.4,16.6
	c0,9.2,5.3,16.8,13.5,16.8c6.8,0,11.3-5.3,12.8-12.4l-1-0.4C256.9,117.4,252.8,124.6,247.6,124.6 M243.5,99.2c7.6,0,7.3,8.4,7.3,8.4
	h-14.5C236.3,103.6,239.7,99.2,243.5,99.2"/>
<path class="st0" d="M257.8,117.8C257.8,117.8,257.8,117.8,257.8,117.8L257.8,117.8C257.8,117.7,257.8,117.8,257.8,117.8"/>
<polygon class="st0" points="379.8,93.9 371.3,89 372.8,86.3 381.3,91.2 "/>
<path class="st0" d="M99.1,166.4c-50.2,0.6-49-57.5-49-57.5L49.7,0H0c1.6,0,25.6,1.2,25.6,35v73.9c0,0-3.6,67.6,66.8,67.7h0.3
	c12.7,0,23-2.5,31.3-6.4V159C117.6,163.4,109.4,166.3,99.1,166.4z"/>
</svg>
