<?xml version="1.0" encoding="utf-8"?>
<!-- Generator: Adobe Illustrator 19.2.1, SVG Export Plug-In . SVG Version: 6.00 Build 0)  -->
<svg version="1.1" id="Layer_1" xmlns="http://www.w3.org/2000/svg" xmlns:xlink="http://www.w3.org/1999/xlink" x="0px" y="0px"
	 viewBox="0 0 1009.8 205.7" enable-background="new 0 0 1009.8 205.7" xml:space="preserve">
<g id="g10" transform="matrix(1.25,0,0,-1.25,0,336.6125)">
	<g id="g12" transform="scale(0.1,0.1)">
		<path id="path14" fill="#25387E" d="M3318.5,1064.4H2782v814.3h536.5v-96.2h-428.2v-223.1h428.2V1463h-428.2v-302.4h428.2V1064.4"
			/>
		<path id="path16" fill="#25387E" d="M3820.9,1563.1h-5.5c-15.3,3.6-30.2,6.3-44.6,7.9c-14.4,1.6-31.5,2.5-51.1,2.5
			c-31.7,0-62.3-7-91.9-21.1c-29.5-14-58-32.2-85.3-54.4v-433.6h-102.8v610.8h102.8V1585c40.8,32.8,76.8,56.1,108,69.7
			c31.2,13.7,63,20.5,95.4,20.5c17.9,0,30.8-0.5,38.8-1.4c8-0.9,20-2.6,36.1-5.2L3820.9,1563.1"/>
		<path id="path18" fill="#25387E" d="M4271.6,1214.8v170.1c-31.3-1.8-68.3-4.6-110.7-8.2c-42.5-3.7-76.1-8.9-100.9-15.9
			c-29.5-8.4-53.4-21.4-71.6-39.1c-18.2-17.7-27.3-42-27.3-73c0-35,10.6-61.3,31.7-79c21.1-17.7,53.4-26.5,96.8-26.5
			c36.1,0,69.1,7,99,21C4218.4,1178.2,4246.1,1195.1,4271.6,1214.8z M4373.9,1064.4h-102.3v65.1c-9.1-6.2-21.4-14.9-36.9-26
			c-15.5-11.1-30.5-20-45.1-26.5c-17.1-8.4-36.8-15.4-59.1-21c-22.2-5.7-48.3-8.5-78.2-8.5c-55.1,0-101.7,18.2-140,54.7
			c-38.3,36.5-57.4,82.9-57.4,139.5c0,46.3,9.9,83.8,29.8,112.4c19.9,28.6,48.2,51.1,85,67.5c37.2,16.4,81.8,27.5,134,33.4
			c52.1,5.8,108.1,10.2,167.9,13.1v15.9c0,23.3-4.1,42.7-12.3,58c-8.2,15.3-20,27.3-35.3,36.1c-14.6,8.4-32.1,14-52.5,16.9
			c-20.4,2.9-41.7,4.4-64,4.4c-27,0-57.1-3.6-90.2-10.7c-33.2-7.1-67.5-17.4-102.8-30.9h-5.5v104.4c20,5.5,49,11.5,86.9,18
			c37.9,6.6,75.3,9.8,112.1,9.8c43,0,80.5-3.6,112.4-10.7c31.9-7.1,59.5-19.2,82.8-36.4c23-16.8,40.5-38.5,52.5-65.1
			c12-26.6,18-59.6,18-99L4373.9,1064.4"/>
		<path id="path20" fill="#25387E" d="M4969.2,1240.5c0-55.8-23.1-101.6-69.2-137.3c-46.1-35.7-109.1-53.6-188.9-53.6
			c-45.2,0-86.7,5.4-124.4,16.1c-37.7,10.8-69.4,22.5-94.9,35.3v115.4h5.5c32.4-24.4,68.5-43.8,108.3-58.2
			c39.7-14.4,77.8-21.6,114.3-21.6c45.2,0,80.6,7.3,106.1,21.9c25.5,14.6,38.3,37.5,38.3,68.9c0,24-6.9,42.3-20.8,54.7
			c-13.9,12.4-40.5,23-79.8,31.7c-14.6,3.3-33.6,7.1-57.2,11.5c-23.5,4.4-44.9,9.1-64.3,14.2c-53.6,14.2-91.6,35.1-114,62.6
			c-22.4,27.5-33.6,61.3-33.6,101.5c0,25.2,5.2,48.8,15.6,71.1c10.4,22.2,26.2,42.1,47.3,59.6c20.4,17.1,46.4,30.7,77.9,40.8
			c31.5,10,66.8,15,105.8,15c36.5,0,73.4-4.5,110.7-13.4c37.4-8.9,68.5-19.8,93.3-32.5v-109.9h-5.5c-26.3,19.3-58.2,35.6-95.7,48.9
			c-37.6,13.3-74.3,20-110.4,20c-37.6,0-69.3-7.2-95.1-21.6c-25.9-14.4-38.8-35.8-38.8-64.3c0-25.2,7.8-44.1,23.5-56.9
			c15.3-12.8,40.1-23.2,74.4-31.2c18.9-4.4,40.2-8.7,63.7-13.1c23.5-4.4,43.1-8.4,58.8-12c47.7-10.9,84.6-29.7,110.5-56.3
			C4956.3,1320.7,4969.2,1285,4969.2,1240.5"/>
		<path id="path22" fill="#25387E" d="M5969.7,1064.4h-102.8v347.8c0,26.3-1.2,51.6-3.6,76c-2.4,24.4-7.4,43.9-15,58.5
			c-8.4,15.7-20.4,27.5-36.1,35.6c-15.7,8-38.3,12-67.8,12c-28.8,0-57.6-7.2-86.4-21.6c-28.8-14.4-57.6-32.7-86.4-55
			c1.1-8.4,2-18.1,2.7-29.3c0.7-11.1,1.1-22.2,1.1-33.1v-391h-102.8v347.8c0,27-1.2,52.6-3.6,76.8c-2.4,24.2-7.4,43.6-15,58.2
			c-8.4,15.7-20.4,27.4-36.1,35.3c-15.7,7.8-38.3,11.8-67.8,11.8c-28.1,0-56.2-6.9-84.5-20.8c-28.3-13.9-56.4-31.5-84.5-53.1v-456.1
			h-102.8v610.8h102.8v-67.8c32.1,26.6,64.1,47.4,96,62.3c31.9,14.9,65.9,22.4,102,22.4c41.6,0,76.8-8.8,105.8-26.3
			c29-17.5,50.6-41.7,64.8-72.7c41.6,35,79.5,60.2,113.7,75.7c34.3,15.5,70.9,23.2,109.9,23.2c67.1,0,116.6-20.3,148.5-61
			c31.9-40.7,47.9-97.4,47.9-170.4L5969.7,1064.4"/>
		<path id="path24" fill="#25387E" d="M6617.3,1064.4h-102.8v67.8c-34.7-27.3-67.8-48.3-99.5-62.9c-31.7-14.6-66.7-21.9-105-21.9
			c-64.2,0-114.1,19.6-149.8,58.8c-35.7,39.2-53.6,96.7-53.6,172.5v396.5h102.8v-347.8c0-31,1.5-57.5,4.4-79.6
			c2.9-22,9.1-40.9,18.6-56.6c9.8-16,22.6-27.7,38.3-35c15.7-7.3,38.5-10.9,68.4-10.9c26.6,0,55.7,6.9,87.2,20.8
			c31.5,13.8,61,31.5,88.3,53v456.1h102.8L6617.3,1064.4"/>
		<path id="path26" fill="#25387E" d="M7217.6,1240.5c0-55.8-23.1-101.6-69.2-137.3c-46.1-35.7-109.1-53.6-188.9-53.6
			c-45.2,0-86.7,5.4-124.4,16.1c-37.7,10.8-69.4,22.5-94.9,35.3v115.4h5.5c32.4-24.4,68.5-43.8,108.3-58.2
			c39.7-14.4,77.8-21.6,114.3-21.6c45.2,0,80.6,7.3,106.1,21.9c25.5,14.6,38.3,37.5,38.3,68.9c0,24-6.9,42.3-20.8,54.7
			c-13.9,12.4-40.5,23-79.9,31.7c-14.6,3.3-33.6,7.1-57.1,11.5c-23.5,4.4-44.9,9.1-64.3,14.2c-53.6,14.2-91.6,35.1-114,62.6
			c-22.4,27.5-33.6,61.3-33.6,101.5c0,25.2,5.2,48.8,15.6,71.1c10.4,22.2,26.1,42.1,47.3,59.6c20.4,17.1,46.4,30.7,77.9,40.8
			c31.5,10,66.8,15,105.8,15c36.5,0,73.4-4.5,110.8-13.4c37.4-8.9,68.4-19.8,93.2-32.5v-109.9h-5.5c-26.2,19.3-58.1,35.6-95.7,48.9
			c-37.6,13.3-74.4,20-110.5,20c-37.5,0-69.3-7.2-95.1-21.6c-25.9-14.4-38.8-35.8-38.8-64.3c0-25.2,7.8-44.1,23.5-56.9
			c15.3-12.8,40.1-23.2,74.4-31.2c19-4.4,40.2-8.7,63.7-13.1c23.5-4.4,43.1-8.4,58.8-12c47.8-10.9,84.6-29.7,110.5-56.3
			C7204.6,1320.7,7217.6,1285,7217.6,1240.5"/>
		<path id="path28" fill="#25387E" d="M8078.7,1377.2h-298v-298h-90.8v298h-298v87.5h298v298h90.8v-298h298V1377.2"/>
		<path id="path30" fill="#25387E" d="M0,1064.4h2442.7v1628.5H0V1064.4L0,1064.4z"/>
		<path id="path32" fill="#F9E418" d="M1221.5,2512l20.1-62.8l65.8,0.3l-53.5-38.5l20.7-62.6l-53.1,39l-53.2-39l20.7,62.6
			l-53.6,38.5l65.9-0.3L1221.5,2512"/>
		<path id="path34" fill="#F9E418" d="M950.1,2439.2l20.1-62.8l65.8,0.3l-53.5-38.5l20.7-62.6l-53.1,39l-53.2-39l20.7,62.6
			l-53.6,38.5l65.9-0.3L950.1,2439.2"/>
		<path id="path36" fill="#F9E418" d="M751.4,2240.5l20.1-62.8l65.8,0.3l-53.5-38.5l20.7-62.6l-53.1,39l-53.2-39l20.7,62.6
			l-53.6,38.5l65.9-0.3L751.4,2240.5"/>
		<path id="path38" fill="#F9E418" d="M678.7,1969.1l20.1-62.8l65.8,0.3l-53.5-38.5l20.7-62.6l-53.1,39l-53.2-39l20.7,62.6
			l-53.6,38.5l65.9-0.3L678.7,1969.1"/>
		<path id="path40" fill="#F9E418" d="M751.4,1697.7l20.1-62.8l65.8,0.3l-53.5-38.5l20.7-62.6l-53.1,39l-53.2-39l20.7,62.6
			l-53.6,38.5l66-0.3L751.4,1697.7"/>
		<path id="path42" fill="#F9E418" d="M950.1,1499l20.1-62.9l65.8,0.3l-53.5-38.5l20.7-62.6l-53.1,39l-53.2-39l20.7,62.6l-53.6,38.5
			l66-0.3L950.1,1499"/>
		<path id="path44" fill="#F9E418" d="M1221.5,1426.3l20.1-62.9l65.8,0.3l-53.5-38.5l20.7-62.6l-53.1,39l-53.2-39l20.7,62.6
			l-53.6,38.5l66-0.3L1221.5,1426.3"/>
		<path id="path46" fill="#F9E418" d="M1492.9,1499.1l20.1-62.8l65.8,0.3l-53.5-38.5l20.7-62.6l-53.1,39l-53.2-39l20.7,62.6
			l-53.6,38.5l66-0.3L1492.9,1499.1"/>
		<path id="path48" fill="#F9E418" d="M1691.6,1697.8l20.1-62.8l65.8,0.3l-53.5-38.5l20.7-62.6l-53.1,39l-53.2-39l20.7,62.6
			l-53.6,38.5l66-0.3L1691.6,1697.8"/>
		<path id="path50" fill="#F9E418" d="M1764.3,1969.2l20.1-62.8l65.8,0.3l-53.5-38.5l20.7-62.6l-53.1,39l-53.2-39l20.7,62.6
			l-53.6,38.5l66-0.3L1764.3,1969.2"/>
		<path id="path52" fill="#F9E418" d="M1691.6,2240.6l20.1-62.8l65.8,0.3l-53.5-38.5l20.7-62.6l-53.1,39l-53.2-39l20.7,62.6
			l-53.6,38.5l66-0.3L1691.6,2240.6"/>
		<path id="path54" fill="#F9E418" d="M1492.9,2439.2l20.1-62.8l65.8,0.3l-53.5-38.5l20.7-62.6l-53.1,39l-53.2-39l20.7,62.6
			l-53.6,38.5l66-0.3L1492.9,2439.2"/>
	</g>
</g>
</svg>
