<?xml version="1.0" encoding="utf-8"?>
<!-- Generator: Adobe Illustrator 20.0.0, SVG Export Plug-In . SVG Version: 6.00 Build 0)  -->
<svg version="1.1" id="Layer_1" xmlns="http://www.w3.org/2000/svg" xmlns:xlink="http://www.w3.org/1999/xlink" x="0px" y="0px"
	 viewBox="0 0 1008.7 196.6" style="enable-background:new 0 0 1008.7 196.6;" xml:space="preserve">
<style type="text/css">
	.st0{fill:#95C888;}
	.st1{fill:#11807A;}
	.st2{fill:#7CCEF3;}
	.st3{fill:#99C441;}
	.st4{fill:#4DBAAE;}
</style>
<g>
	<path class="st0" d="M370.2,192.4c-3.9,0-7-1.1-9.2-3.3c-2.2-2.2-3.3-5.3-3.3-9.2V71.1c0-4.5-0.7-8.8-2.1-13
		c-1.4-4.2-3.5-7.9-6.3-11.3c-2.8-3.3-6.3-6.1-10.7-8.2c-4.3-2.1-9.5-3.1-15.7-3.1c-6.1,0-11.4,1-15.7,3.1
		c-4.3,2.1-7.9,4.8-10.7,8.2c-2.8,3.3-4.8,7.1-6.1,11.3c-1.3,4.2-1.9,8.5-1.9,13v108.7c0,3.9-1.1,7-3.3,9.2
		c-2.2,2.2-5.3,3.3-9.2,3.3h-12.5c-3.9,0-7-1.1-9.2-3.3c-2.2-2.2-3.3-5.3-3.3-9.2V71.1c0-4.5-0.7-8.8-2.1-13
		c-1.4-4.2-3.5-7.9-6.3-11.3c-2.8-3.3-6.3-6.1-10.7-8.2c-4.3-2.1-9.4-3.1-15.3-3.1c-5.9,0-11,1-15.5,3.1c-4.5,2.1-8.1,4.8-10.9,8.2
		c-2.8,3.3-4.9,7.1-6.3,11.3c-1.4,4.2-2.1,8.5-2.1,13v108.7c0,3.9-1.1,7-3.3,9.2c-2.2,2.2-5.3,3.3-9.2,3.3h-12.5
		c-3.9,0-7-1.1-9.2-3.3c-2.2-2.2-3.3-5.3-3.3-9.2V71.1c0-10,1.7-19.4,5.2-28.2c3.5-8.8,8.4-16.3,14.6-22.6
		C170.5,14,178.1,9.1,187,5.4c8.9-3.6,18.8-5.4,29.7-5.4c10.6,0,20,2,28.2,5.9c8.2,3.9,15.1,8.2,20.7,13c2.8,2.5,5.4,2.5,7.9,0
		c5.3-5.3,12.1-9.8,20.3-13.4c8.2-3.6,17.9-5.4,29.1-5.4c10.9,0,20.8,1.8,29.7,5.4c8.9,3.6,16.5,8.6,22.8,14.8
		c6.3,6.3,11.1,13.8,14.6,22.6c3.5,8.8,5.2,18.2,5.2,28.2v108.7c0,3.9-1.1,7-3.3,9.2c-2.2,2.2-5.3,3.3-9.2,3.3H370.2z"/>
	<path class="st1" d="M225.8,192.4c-3.9,0-7-1.1-9.2-3.3c-2.2-2.2-3.3-5.3-3.3-9.2V71.1c0-4.5-0.7-8.8-2.1-13
		c-1.4-4.2-3.5-7.9-6.3-11.3c-2.8-3.3-6.3-6.1-10.7-8.2c-4.3-2.1-9.5-3.1-15.7-3.1c-6.1,0-11.4,1-15.7,3.1
		c-4.3,2.1-7.9,4.8-10.7,8.2c-2.8,3.3-4.8,7.1-6.1,11.3c-1.3,4.2-1.9,8.5-1.9,13v108.7c0,3.9-1.1,7-3.3,9.2
		c-2.2,2.2-5.3,3.3-9.2,3.3h-12.5c-3.9,0-7-1.1-9.2-3.3c-2.2-2.2-3.3-5.3-3.3-9.2V71.1c0-4.5-0.7-8.8-2.1-13
		c-1.4-4.2-3.5-7.9-6.3-11.3c-2.8-3.3-6.3-6.1-10.7-8.2c-4.3-2.1-9.4-3.1-15.3-3.1c-5.9,0-11,1-15.5,3.1c-4.5,2.1-8.1,4.8-10.9,8.2
		c-2.8,3.3-4.9,7.1-6.3,11.3c-1.4,4.2-2.1,8.5-2.1,13v108.7c0,3.9-1.1,7-3.3,9.2c-2.2,2.2-5.3,3.3-9.2,3.3H12.6
		c-3.9,0-7-1.1-9.2-3.3c-2.2-2.2-3.3-5.3-3.3-9.2V71.1c0-10,1.7-19.4,5.2-28.2c3.5-8.8,8.4-16.3,14.6-22.6
		C26.1,14,33.7,9.1,42.7,5.4C51.6,1.8,61.5,0,72.4,0c10.6,0,20,2,28.2,5.9c8.2,3.9,15.1,8.2,20.7,13c2.8,2.5,5.4,2.5,7.9,0
		c5.3-5.3,12.1-9.8,20.3-13.4c8.2-3.6,17.9-5.4,29.1-5.4c10.9,0,20.8,1.8,29.7,5.4c8.9,3.6,16.5,8.6,22.8,14.8
		c6.3,6.3,11.1,13.8,14.6,22.6c3.5,8.8,5.2,18.2,5.2,28.2v108.7c0,3.9-1.1,7-3.3,9.2c-2.2,2.2-5.3,3.3-9.2,3.3H225.8z"/>
	<path class="st2" d="M501.8,196.6c-13.7,0-26.4-2.6-38.3-7.7c-11.9-5.2-22.2-12.2-31.2-21.1c-8.9-8.9-16-19.3-21.1-31.2
		c-5.2-11.8-7.7-24.6-7.7-38.3c0-13.7,2.6-26.4,7.7-38.3c5.2-11.8,12.2-22.2,21.1-31.2c8.9-8.9,19.3-16,31.2-21.1
		C475.3,2.6,488.1,0,501.8,0c13.7,0,26.4,2.6,38.3,7.7c11.8,5.2,22.2,12.2,31.2,21.1c8.9,8.9,16,19.3,21.1,31.2
		c5.1,11.9,7.7,24.6,7.7,38.3c0,13.7-2.6,26.4-7.7,38.3c-5.2,11.9-12.2,22.2-21.1,31.2c-8.9,8.9-19.3,16-31.2,21.1
		C528.2,194,515.4,196.6,501.8,196.6z M501.8,161c8.6,0,16.7-1.7,24-5c7.4-3.3,13.8-7.8,19.2-13.4c5.4-5.6,9.7-12.2,12.8-19.9
		c3.1-7.7,4.6-15.8,4.6-24.5c0-8.6-1.5-16.8-4.6-24.5c-3.1-7.7-7.3-14.3-12.8-19.9c-5.4-5.6-11.9-10-19.2-13.4c-7.4-3.3-15.4-5-24-5
		c-8.6,0-16.7,1.7-24,5c-7.4,3.3-13.8,7.8-19.2,13.4c-5.4,5.6-9.7,12.2-12.8,19.9c-3.1,7.7-4.6,15.8-4.6,24.5
		c0,8.6,1.5,16.8,4.6,24.5c3.1,7.7,7.3,14.3,12.8,19.9c5.4,5.6,11.8,10,19.2,13.4C485.1,159.3,493.1,161,501.8,161z"/>
	<path class="st3" d="M659.9,192.4c-3.9,0-7-0.7-9.4-2.1c-2.4-1.4-4.3-4.5-5.6-9.2L587.5,15.9c-1.4-3.6-1.3-6.5,0.4-8.6
		c1.7-2.1,4.5-3.1,8.4-3.1h15.5c7.5,0,12.3,3.3,14.2,10l39.7,124.2c0.8,3.1,2.2,4.6,4.2,4.6c1.9,0,3.3-1.5,4.2-4.6l39.7-124.2
		c1.9-6.7,6.7-10,14.2-10h15.5c3.9,0,6.7,1,8.4,3.1c1.7,2.1,1.8,5,0.4,8.6L695,181.1c-1.4,4.7-3.3,7.8-5.6,9.2
		c-2.4,1.4-5.5,2.1-9.4,2.1H659.9z"/>
	<path class="st4" d="M888.9,151.4c2.5,2.5,3.7,5.3,3.6,8.4c-0.1,3.1-1.3,6-3.6,8.8c-5.6,7-13.8,13.4-24.7,19.2
		c-10.9,5.9-23.8,8.8-38.9,8.8c-11.7,0-22.2-1.9-31.6-5.6c-9.3-3.8-17.4-9-24.1-15.7c-6.7-6.7-11.8-14.5-15.5-23.4
		c-3.6-8.9-5.4-18.4-5.4-28.4V74c0-10,1.6-19.6,4.8-28.6c3.2-9.1,7.9-16.9,14.2-23.6c6.3-6.7,13.9-12,23-15.9C799.9,2,810.3,0,822,0
		c11.7,0,22.2,2,31.4,5.9c9.2,3.9,17.1,9.2,23.6,15.9c6.5,6.7,11.6,14.6,15.1,23.6c3.5,9.1,5.2,18.6,5.2,28.6v25.1
		c0,3.9-1.1,7-3.3,9.2c-2.2,2.2-5.3,3.3-9.2,3.3h-94.1c-2.8,0-4.2,1.4-4.2,4.2v7.5c0,10.6,3.1,19.5,9.4,26.8
		c6.3,7.3,16.1,10.9,29.5,10.9c10.6,0,18.8-1.9,24.7-5.6c5.9-3.8,10.3-7.3,13.4-10.7c3.1-3.1,6.1-4.5,9.2-4.4c3.1,0.1,5.9,1.5,8.4,4
		L888.9,151.4z M859.6,74c0-10.6-2.9-19.7-8.8-27.2c-5.9-7.5-15.5-11.3-28.9-11.3c-13.1,0-22.3,3.8-27.6,11.3
		c-5.3,7.5-7.9,16.6-7.9,27.2v2.1c0,2.8,1.4,4.2,4.2,4.2h64.8c2.8,0,4.2-1.4,4.2-4.2V74z"/>
	<path class="st1" d="M1000.3,151.4c2.5,2.5,3.7,5.3,3.6,8.4c-0.1,3.1-1.3,6-3.6,8.8c-5.6,7-13.8,13.4-24.7,19.2
		c-10.9,5.9-23.8,8.8-38.9,8.8c-11.7,0-22.2-1.9-31.6-5.6c-9.3-3.8-17.4-9-24.1-15.7c-6.7-6.7-11.8-14.5-15.5-23.4
		c-3.6-8.9-5.4-18.4-5.4-28.4V74c0-10,1.6-19.6,4.8-28.6c3.2-9.1,7.9-16.9,14.2-23.6c6.3-6.7,13.9-12,23-15.9
		C911.3,2,921.7,0,933.4,0c11.7,0,22.2,2,31.4,5.9c9.2,3.9,17.1,9.2,23.6,15.9c6.5,6.7,11.6,14.6,15.1,23.6
		c3.5,9.1,5.2,18.6,5.2,28.6v25.1c0,3.9-1.1,7-3.3,9.2c-2.2,2.2-5.3,3.3-9.2,3.3H902c-2.8,0-4.2,1.4-4.2,4.2v7.5
		c0,10.6,3.1,19.5,9.4,26.8c6.3,7.3,16.1,10.9,29.5,10.9c10.6,0,18.8-1.9,24.7-5.6c5.9-3.8,10.3-7.3,13.4-10.7
		c3.1-3.1,6.1-4.5,9.2-4.4c3.1,0.1,5.9,1.5,8.4,4L1000.3,151.4z M971,74c0-10.6-2.9-19.7-8.8-27.2c-5.9-7.5-15.5-11.3-28.9-11.3
		c-13.1,0-22.3,3.8-27.6,11.3c-5.3,7.5-7.9,16.6-7.9,27.2v2.1c0,2.8,1.4,4.2,4.2,4.2h64.8c2.8,0,4.2-1.4,4.2-4.2V74z"/>
</g>
</svg>
