<?xml version="1.0" encoding="utf-8"?>
<!-- Generator: Adobe Illustrator 20.0.0, SVG Export Plug-In . SVG Version: 6.00 Build 0)  -->
<svg version="1.1" id="Layer_1" xmlns="http://www.w3.org/2000/svg" xmlns:xlink="http://www.w3.org/1999/xlink" x="0px" y="0px"
	 viewBox="0 0 1008 310.2" style="enable-background:new 0 0 1008 310.2;" xml:space="preserve">
<style type="text/css">
	.st0{fill:#FFFFFF;}
	.st1{fill:#6A0F5A;}
	.st2{fill:#7FB9C8;}
	.st3{fill:#7EAA97;}
	.st4{fill:#2A4166;}
</style>
<g>
	<polygon class="st0" points="0,310.2 0,0 1008,0 1008,310.2 0,310.2 	"/>
	<polygon class="st1" points="992.5,294.6 310.2,294.6 310.2,15.5 992.5,15.5 992.5,294.6 	"/>
	<path class="st0" d="M381.8,210.5c0,9.3,1.9,16.5,5.7,21.4c3.8,5,9.3,7.4,16.6,7.4c7.2,0,12.5-2.2,15.9-6.7
		c3.4-4.5,5.1-11.6,5.1-21.2c0-9-1.8-16-5.4-20.8c-3.6-4.9-9.2-7.3-16.8-7.3c-7.3,0-12.7,2.2-16,6.8
		C383.5,194.6,381.8,201.4,381.8,210.5L381.8,210.5z M434.5,210c0,9.9-2.8,17.8-8.4,23.9c-5.6,6-13.5,9-23.5,9
		c-9.6,0-17-2.8-22.2-8.3c-5.2-5.6-7.9-13.1-7.9-22.6c0-9.9,2.8-17.7,8.5-23.5c5.6-5.8,13.4-8.6,23.5-8.6c9.6,0,17,2.7,22.2,8.1
		C431.9,193.3,434.5,200.7,434.5,210L434.5,210z"/>
	<path class="st0" d="M451.8,181.4h10.4c6.4,0,13.2-0.1,20.3-0.2l0.3,0.3l-2.5,13.2l-1.7,0.3l-2.7-9.9h-19.8v23.6h3.9
		c3,0,5.2,0,8.8-0.1c0.7,0,1.2-0.4,1.5-1.1l1.5-5.8l2.3-0.1c-0.1,4-0.1,7-0.1,8.9c0,1.9,0,4.8,0.1,8.7l-2.3,0.2l-1.5-5.9
		c-0.2-0.8-0.7-1.1-1.3-1.2c-3.7-0.1-6-0.1-9-0.1h-3.9V228c0,3.2,0,6.3,0.1,9.4h20.6l5.2-10.9l1.9-0.3l-0.9,14.9l-0.3,0.3
		c-7.4-0.1-14.2-0.1-20.5-0.1H452c-3.4,0-7,0-10.6,0.1l-0.2-1.8l5.3-1.6c0.7-0.2,1.1-0.6,1.2-1.3c0-1.1,0-2.4,0.1-3.8
		c0-1.4,0-3,0-4.7v-34.8c0-1.5,0-2.8,0-3.9c0-1.2,0-2.2-0.1-3.2c0-0.7-0.4-1.2-1-1.5l-5.3-1.7l-0.1-1.8
		C444.9,181.4,448.4,181.4,451.8,181.4L451.8,181.4z"/>
	<polygon class="st0" points="472.3,171.1 455.8,174.8 455,173.1 467.9,165.7 472.3,170.6 472.3,171.1 	"/>
	<path class="st0" d="M634.8,187.6c0,1.5-0.5,2.7-1.4,3.7c-0.9,1-2.2,1.4-3.6,1.4c-1.4,0-2.6-0.4-3.5-1.3c-0.9-0.9-1.3-2.1-1.3-3.5
		c0-1.5,0.5-2.8,1.4-3.7c0.9-0.9,2.2-1.4,3.7-1.4c1.4,0,2.5,0.4,3.4,1.2C634.4,184.9,634.8,186.1,634.8,187.6L634.8,187.6z
		 M620.4,203.6c5-1,9.6-1.4,13.9-2.5l0.4,0.3c-0.2,3.7-0.3,7.3-0.3,11.7v16.5c0,3.4,0,5.8,0.1,7.1c0.1,0.8,0.4,1.3,1.1,1.5l5,1.4
		l0.1,1.8c-3.9-0.1-7.3-0.1-10.1-0.1s-6.2,0-10,0.1l-0.2-1.8l5-1.4c0.7-0.2,1-0.7,1.1-1.3c0.1-1.1,0.1-3,0.1-5.6v-14.3
		c0-3.8-0.1-7.2-0.2-10.4l-5.7-1.5L620.4,203.6L620.4,203.6z"/>
	<path class="st0" d="M646.9,183.3l-0.2-1.4c5.1-1,9.7-1.4,14-2.5l0.4,0.3c-0.2,4.6-0.3,8.4-0.3,16.7v27.9c0,5.1,0,9.2,0.1,12.3
		c0.1,0.8,0.5,1.3,1.2,1.5l4.7,1.4l0.1,1.8c-3.9-0.1-7.2-0.1-10-0.1c-2.8,0-6.1,0-10,0.1l-0.2-1.8l4.8-1.4c0.7-0.2,1.1-0.7,1.2-1.4
		c0.1-3.2,0.1-6.8,0.1-10.8v-17.6c0-10.6-0.1-17-0.2-23.4L646.9,183.3L646.9,183.3z"/>
	<path class="st0" d="M673.2,183.3l-0.2-1.4c5.1-1,9.7-1.4,14-2.5l0.4,0.3c-0.2,4.6-0.3,8.4-0.3,16.7v27.9c0,5.1,0,9.2,0.1,12.3
		c0.1,0.8,0.5,1.3,1.2,1.5l4.7,1.4l0.1,1.8c-3.9-0.1-7.2-0.1-10-0.1c-2.8,0-6.1,0-10,0.1l-0.2-1.8l4.8-1.4c0.7-0.2,1.1-0.7,1.2-1.4
		c0.1-3.2,0.1-6.8,0.1-10.8v-17.6c0-10.6-0.1-17-0.2-23.4L673.2,183.3L673.2,183.3z"/>
	<path class="st0" d="M714,187.6c0,1.5-0.5,2.7-1.4,3.7c-0.9,1-2.1,1.4-3.6,1.4c-1.4,0-2.6-0.4-3.5-1.3c-0.9-0.9-1.3-2.1-1.3-3.5
		c0-1.5,0.5-2.8,1.4-3.7c1-0.9,2.2-1.4,3.7-1.4c1.4,0,2.5,0.4,3.4,1.2C713.5,184.9,714,186.1,714,187.6L714,187.6z M699.5,203.6
		c5-1,9.7-1.4,13.9-2.5l0.4,0.3c-0.2,3.7-0.3,7.3-0.3,11.7v16.5c0,3.4,0,5.8,0.1,7.1c0,0.8,0.4,1.3,1.1,1.5l5,1.4l0.1,1.8
		c-3.9-0.1-7.3-0.1-10.1-0.1c-2.8,0-6.1,0-10,0.1l-0.2-1.8l5-1.4c0.7-0.2,1-0.7,1.1-1.3c0.1-1.1,0.1-3,0.1-5.6v-14.3
		c0-3.8-0.1-7.2-0.2-10.4l-5.7-1.5L699.5,203.6L699.5,203.6z"/>
	<path class="st0" d="M765.3,208.9c0.4,1.4,0.6,2.9,0.6,4.6v15.3c0,3.3,0,6,0.1,8.1c0,0.8,0.4,1.3,1.1,1.5l4.3,1.2l0.1,1.8
		c-3.5-0.1-6.6-0.1-9.4-0.1c-2.8,0-5.9,0-9.4,0.1l-0.2-1.8l4.1-1.2c0.8-0.3,1.3-0.7,1.3-1.4c0-0.4,0-1.3,0-2.7v-18.7
		c0-3.5-0.8-6-2.4-7.6c-1.6-1.5-4-2.3-7.1-2.3c-2.8,0-5.6,0.8-8.5,2.5V227c0,3.6,0,6.8,0.1,9.8c0,0.9,0.3,1.3,0.9,1.5l4.6,1.3
		l0.1,1.8c-3.5-0.1-6.7-0.1-9.5-0.1c-2.8,0-6.1,0-10,0.1l-0.2-1.8l4.9-1.4c0.7-0.2,1.1-0.7,1.1-1.3c0-1.5,0-3.3,0-5.3V217
		c0-3.7-0.1-7.2-0.2-10.4l-5.7-1.5l-0.2-1.5c4.7-0.9,9.2-1.4,13.6-2.5l0.4,0.3v4.4c4.7-3.5,9.1-5.3,13.3-5.3c5.1,0,8.9,2,11.2,6
		c4.5-4,9.4-6,14.7-6c4,0,7.1,1.1,9.3,3.4c2.2,2.2,3.4,5.5,3.4,9.6v15.2c0,3.6,0,6.3,0.1,8c0,0.8,0.4,1.3,1.2,1.5l4.8,1.4l0.1,1.8
		c-3.8-0.1-7.1-0.1-9.9-0.1c-2.9,0-6,0-9.4,0.1l-0.2-1.8l4.3-1.2c0.7-0.2,1-0.7,1.1-1.3c0-0.4,0-1.3,0-2.7v-18.7
		c0-3.5-0.8-6-2.4-7.6c-1.6-1.5-4-2.3-7.2-2.3C771.1,205.8,768.1,206.9,765.3,208.9L765.3,208.9z"/>
	<path class="st0" d="M803.7,181.9c4.7-0.9,9.3-1.4,14-2.5l0.4,0.3c-0.1,2.7-0.2,6-0.2,10.9c0,5,0,8.4,0,14.7
		c5-3.2,9.6-4.8,13.9-4.8c4,0,7.1,1.1,9.5,3.3c2.3,2.2,3.5,5.5,3.5,9.8v15.1c0,3.3,0,5.9,0.1,7.9c0,0.7,0.4,1.2,1.1,1.5l4.8,1.4
		l0.1,1.8c-3.8-0.1-7.1-0.1-9.9-0.1c-2.8,0-5.9,0-9.4,0.1l-0.2-1.8l4.2-1.2c0.7-0.2,1.1-0.7,1.1-1.3c0-0.4,0-1.3,0-2.7v-18.7
		c0-3.5-0.8-6-2.5-7.6c-1.7-1.5-4.2-2.3-7.5-2.3c-2.8,0-5.8,0.7-8.9,2.1v19.2c0,3.5,0,6.8,0.1,9.7c0,0.8,0.4,1.3,1.1,1.5l4.5,1.3
		l0.1,1.8c-3.6-0.1-6.8-0.1-9.6-0.1c-2.8,0-6.1,0-10,0.1l-0.2-1.8l4.8-1.4c0.7-0.2,1.1-0.7,1.2-1.4c0.1-2.7,0.1-6.2,0.1-10.5v-17.9
		c0-5.8,0-11,0-15.5c0-4.5-0.1-5.7-0.1-7.9l-5.8-1.7L803.7,181.9L803.7,181.9z"/>
	<path class="st0" d="M601.3,221.9c-6,0-10.1,0.6-12.3,1.8c-2.2,1.2-3.3,3.3-3.3,6.2c0,2.7,0.7,4.6,2.2,5.8c1.5,1.1,3.4,1.7,5.9,1.7
		c2.8,0,5.3-0.5,7.4-1.5L601.3,221.9L601.3,221.9z M582.4,209.3h-1.6l-0.2-5.1c5.6-2.4,10.5-3.7,14.8-3.7c4.4,0,7.9,1.2,10.4,3.4
		c2.6,2.3,3.8,5.6,3.8,9.9l-0.2,17.8c0,1.5,0,5.9,0,5.9l5.8,1.9l0.2,1.9l-12.7,0.7l-0.9-3.9c-4,2.9-7.9,4.3-11.4,4.3
		c-4,0-7.2-1-9.7-2.9c-2.4-2-3.7-4.7-3.7-8.3c0-4.4,2-7.6,5.9-9.7c3.9-2.1,10.1-3.1,18.5-3.1l0-3.3c0-3.2-0.8-5.6-2.4-7.1
		c-1.7-1.5-4.2-2.3-7.6-2.3c-2.4,0-4.9,0.3-8.4,1.1L582.4,209.3L582.4,209.3z"/>
	<path class="st0" d="M572.7,214.9c-3.2,0.1-6.5,0.1-10,0.1c-3.4,0-8.6,0-12.3-0.1l0.1,1.3l6.7,2.2c0.6,0.2,1,0.6,1,1.3l1.2,18.5
		c-2.3,0.6-5.3,1.1-8.2,1.1c-7.4-0.1-13.2-2.5-17.6-7.6c-4.3-5.1-6.5-11.9-6.5-20.5c0-8.5,2-15.2,6-20c4-4.8,9.6-7.3,16.7-7.3
		c3.1,0,7.4,0.6,10.4,1.6l0,0c1,3,1.4,6.5,1.3,9.3c0.4,0,0.8,0,1.2,0.1c0.6,0.1,1.2,0.1,1.7,0.2l2.6-12.7l-0.3-0.3
		c-5-1.2-9.9-1.8-14.5-1.8c-10.7,0-19.1,2.9-25.3,8.6c-6.2,5.7-9.3,13.6-9.3,23.8c0,9.5,3,16.9,8.9,22.2c5.9,5.3,13.9,8,24,8
		c3.4,0,5.9-0.3,9-0.9l0.1,2l1.1,1.1l5.8-1.3l0.2-0.3l0.1-21.7l0,0c0-0.8,0-1.5,0-2.3c0.1-0.7,0.4-1.1,1.1-1.3l4.7-1.4L572.7,214.9
		L572.7,214.9z"/>
	<path class="st0" d="M384.6,127.8c0,0.8,0.4,1.3,1.1,1.5l5.5,1.5l0.1,2.2c-3.8-0.1-7-0.1-9.5-0.1c-2.5,0-5.7,0-9.6,0.1l-0.2-2.1
		l5.7-1.6c0.7-0.2,1.1-0.7,1.2-1.3c0.1-2.3,0.1-5.2,0.1-8.5V85.3c0-2.9,0-5.2-0.1-7.1c0-0.7-0.4-1.2-1-1.4l-5.7-1.7l-0.1-2.2
		c4,0.1,7.1,0.2,9.2,0.2c2.8,0,5.5,0,8-0.2l28.5,35.7c1.1,1.4,2.3,2.9,3.5,4.5c-0.1-2-0.1-3.9-0.1-5.7V85.1c0-2.8,0-5.2-0.1-7.2
		c0-0.7-0.4-1.1-1.1-1.3l-5.5-1.5l-0.1-2.3c3.9,0.1,7.1,0.2,9.6,0.2c2.5,0,5.7,0,9.6-0.2l0.2,2.2l-5.8,1.7c-0.6,0.2-1,0.7-1,1.4
		c-0.1,1.9-0.1,4.3-0.1,7.1v47.6l-4.9,0.5L388,91c-1-1.3-2.2-2.8-3.5-4.6c0.1,2.1,0.1,4.1,0.1,5.8v27.1
		C384.6,122.8,384.6,125.6,384.6,127.8L384.6,127.8z"/>
	<path class="st0" d="M438.9,72.9c4,0.1,8.4,0.2,13.2,0.2c5,0,9.4,0,13.2-0.2l0.2,2.2l-5.6,1.6c-0.7,0.2-1.1,0.6-1.1,1.3
		c0,1-0.1,2.1-0.1,3.3c0,1.2,0,2.5,0,3.8v23.6c0,7.8,1.2,13.2,3.5,16.2c2.3,3,6.1,4.5,11.4,4.5c5.2,0,9.1-1.6,11.6-4.7
		c2.6-3.2,3.9-8.3,3.9-15.4V85.1c0-1.4,0-2.7,0-3.8c0-1.2-0.1-2.3-0.1-3.3c0-0.7-0.4-1.1-1.1-1.3l-5.3-1.5l-0.1-2.3
		c3.8,0.1,7.1,0.2,9.9,0.2c2.6,0,5.8,0,9.7-0.2l0.2,2.2l-5.8,1.7c-0.7,0.2-1,0.7-1.1,1.4c0,1,0,2-0.1,3.2c0,1.2,0,2.5,0,3.9V107
		c0,9.8-2,16.9-6.1,21.2c-4,4.3-9.9,6.4-17.6,6.4c-8.8,0-15.2-2-19.4-6.1c-4.2-4.1-6.3-10.6-6.3-19.6V85.3c0-1.4,0-2.7,0-3.9
		c0-1.2,0-2.2-0.1-3.2c0-0.7-0.4-1.2-1-1.4l-5.8-1.7L438.9,72.9L438.9,72.9z"/>
	<path class="st0" d="M527.9,119.4c0,1.7,0,3.3,0,4.7c0,1.4,0,2.7,0.1,3.8c0,0.7,0.5,1.2,1.5,1.5l5.3,1.5l0.1,2.1
		c-4-0.1-8.4-0.1-13.2-0.1c-5,0-9.5,0-13.4,0.1l-0.2-2.1l5.7-1.6c0.7-0.2,1.1-0.6,1.2-1.3c0-1.1,0-2.4,0.1-3.8c0-1.4,0-3,0-4.7V85.3
		c0-1.4,0-2.7,0-3.9c0-1.2,0-2.2-0.1-3.2c0-0.7-0.4-1.2-1-1.4l-5.8-1.7l-0.1-2.2c4,0.1,8.4,0.2,13.2,0.2c5,0,9.4,0,13.4-0.2l0.2,2.2
		l-5.7,1.6c-0.7,0.2-1.1,0.6-1.1,1.3c0,1,0,2.1-0.1,3.3c0,1.2,0,2.5,0,3.8V119.4L527.9,119.4z"/>
	<path class="st0" d="M678.9,73.8c7.1-1,13.4-1.6,18.7-2.7l0.5,0.3c-0.2,3.9-0.3,5.4-0.3,9.9v39.7c0,3.4,0,5.8,0.1,7.1
		c0.1,0.8,0.4,1.2,1.1,1.4l5.4,1.5l0.1,2c-4.2-0.1-8.4-0.1-12.6-0.1c-4.3,0-8.5,0-12.6,0.1l-0.2-2l5.5-1.5c0.7-0.2,1-0.6,1.1-1.3
		c0.1-1.1,0.1-3,0.1-5.6V85.4c0-3.7-0.1-5-0.2-8.1l-6.3-1.7L678.9,73.8L678.9,73.8z"/>
	<path class="st0" d="M744,93c0,0,4,11.9,7,20.7c0.6,1.8,1.2,3.7,1.8,5.7c0.7-2,1.3-3.9,2-5.7c2.1-5.7,4.2-11.5,6.2-17.4l-4.5-1.3
		l-0.2-2.1c2.1,0.1,4.7,0.1,7.8,0.1c2.5,0,5.1,0,7.6-0.1l0.2,2.1l-4.6,1.2c-0.7,0.2-1.3,0.8-1.7,1.7c-2.1,5.2-4.6,11.4-7.5,18.6
		c-2.9,7.2-5,12.7-6.5,16.5l-5.5,0.6c-1.5-4.2-3.6-9.9-6.1-17.2c-0.7-2.3-1.4-4.4-2.1-6.3c-0.8,1.9-1.5,4-2.3,6.3
		c-2.8,7.3-4.9,12.8-6.4,16.6l-5.5,0.6c-1.5-4.2-3.7-9.9-6.5-17.1c-2.8-7.2-5.2-13.4-7.3-18.5c-0.5-1-1.1-1.6-1.9-1.9L704,95
		l-0.1-2.1c3.7,0.1,7.7,0.1,11.8,0.1c3.9,0,7.7,0,11.3-0.1l0.3,2.1l-4.6,1.3c1.6,5.3,3.6,11.1,6,17.4c0.6,1.8,1.2,3.7,1.8,5.7
		c0.7-2,1.3-3.9,2.1-5.7c2.8-7.9,5.3-14.9,7.2-20.7H744L744,93z"/>
	<path class="st0" d="M656.7,113.8c-4.5,0-7.7,0.6-9.6,1.7c-1.9,1.1-2.9,3.1-2.9,5.9c0,2.5,0.7,4.3,2,5.4c1.4,1.1,3,1.6,4.8,1.6
		c2.1,0,4-0.5,5.5-1.6L656.7,113.8L656.7,113.8z M637.8,101.5H636l-0.2-5.3c6.1-2.8,12-4.2,17.6-4.2c5.1,0,9,1.1,11.6,3.5
		c2.6,2.3,3.8,5.6,3.8,9.9l-0.2,17.8c-0.1,1.5,0.1,5.8,0.1,5.8l6.3,2.1l0.2,1.9l-17.2,0.7l-1-4.2c-3.6,3.1-7.5,4.6-11.5,4.6
		c-4,0-7.2-1-9.8-3c-2.6-2-3.8-4.8-3.8-8.4c0-4.5,2.1-7.8,6.2-9.9c4.2-2.1,10.4-3.1,18.7-3.1l0-3.2c0-3.1-0.7-5.3-2.2-6.8
		c-1.5-1.4-3.8-2.2-7-2.2c-2.6,0-5.6,0.5-9.1,1.5L637.8,101.5L637.8,101.5z"/>
	<path class="st0" d="M798.7,113.8c-4.5,0-7.7,0.6-9.6,1.7c-1.9,1.1-2.9,3.1-2.9,5.9c0,2.5,0.7,4.3,2,5.4c1.4,1.1,3,1.6,4.8,1.6
		c2.1,0,4-0.5,5.5-1.6L798.7,113.8L798.7,113.8z M779.9,101.5H778l-0.2-5.3c6.1-2.8,11.9-4.2,17.6-4.2c5.1,0,9,1.1,11.6,3.5
		c2.6,2.3,3.8,5.6,3.8,9.9l-0.2,17.8c-0.1,1.5,0.1,5.8,0.1,5.8l6.3,2.1l0.2,1.9l-17.2,0.7l-1-4.2c-3.6,3.1-7.5,4.6-11.5,4.6
		c-4,0-7.3-1-9.8-3c-2.6-2-3.9-4.8-3.9-8.4c0-4.5,2.1-7.8,6.2-9.9c4.2-2.1,10.4-3.1,18.7-3.1l0-3.2c0-3.1-0.7-5.3-2.2-6.8
		c-1.5-1.4-3.8-2.2-7-2.2c-2.6,0-5.6,0.5-9.1,1.5L779.9,101.5L779.9,101.5z"/>
	<path class="st0" d="M627.6,106.4c-3.5,0.1-7.7,0.1-12.6,0.1c-4.7,0-9.1,0-13.2-0.1l0.1,2.1l5.8,1.7c0.6,0.2,0.9,0.5,1,1.1h0l0,0
		l1.9,18.5c-2.5,0.4-5.6,0.6-6.7,0.6c-6.5,0-11.5-2.4-15.1-7.3c-3.6-4.9-5.4-11.6-5.4-20.3c0-8.3,1.8-14.8,5.4-19.6
		c3.6-4.8,8.6-7.1,15-7.1c3.2,0,6.8,0.6,9.1,1.4c1.1,3.3,1.5,7.1,1.2,10.1c0.3,0,0.5,0,0.8,0.1c1,0.1,1.9,0.3,2.8,0.5l2.6-14
		l-0.3-0.4c-5.1-1.2-10.3-1.8-15.5-1.8c-10.9,0-19.6,2.9-25.9,8.6c-6.3,5.7-9.5,13.6-9.5,23.8c0,9.5,3.2,16.9,9.5,22.2
		c6.3,5.3,14.7,8,25.1,8c2.4,0,4.9-0.1,7.4-0.4l0.2,1.5l1.6,1.6l8.5-1.9l0.3-0.3l0-22.5c0,0,0,0,0,0c0-0.4,0-0.8,0-1.2
		c0.1-0.6,0.4-1.1,1.1-1.3l5.1-1.4L627.6,106.4L627.6,106.4z"/>
	<path class="st0" d="M861.7,92.9c-2.4,0.1-4.9,0.1-7.5,0.1c-3,0-5.7,0-7.9-0.1l0.2,2.1l4.5,1.3c-1.9,5.1-4.1,10.7-6.4,16.8
		c-0.9,2.2-1.8,4.4-2.6,6.6c-0.9-2.2-1.7-4.1-2.4-5.7c-1.7-3.9-3-7.1-4-9.6c-1-2.5-2.1-5.2-3.2-8l5.4-1.4l-0.2-2.1
		c-4.5,0.1-8.8,0.1-12.8,0.1c-3.1,0-6.5,0-10.3-0.1l0.2,2.1l4.1,1.2c0.9,0.3,1.6,0.9,1.9,1.8c4.2,9.8,8.9,21.1,14,33.8l1.4,3.3
		l-2.9,6.9c-2.6,5.1-4.5,7.5-10,7.5c-3.8,0-7.8-1.5-10.2-3l-3.2,7.4c2.1,1.2,5.7,3.4,12.4,3.4c9,0,14-10.3,16.4-16l1-2.3l0,0l0,0
		c0,0,9.2-24.3,12.9-33.2c1.2-2.9,2.3-5.5,3.3-7.9c0.4-0.9,1.1-1.5,2-1.8l4.1-1.1L861.7,92.9L861.7,92.9z"/>
	<path class="st2" d="M248.1,242.6L248.1,242.6L248.1,242.6L248.1,242.6L248.1,242.6L248.1,242.6z M156.3,15.5l0.5,5.1
		c0.7,0.4,1.1,1,1.1,1.7c0,0.4-0.2,0.8-0.4,1.2c1,0.4,1.6,1.1,1.6,1.9c0,0.3-0.1,0.6-0.3,0.9c-0.4,0.9-0.6,1.9-0.6,2.9
		c0,0.7,0.1,1.4,0.3,2.1c0.8,0.7,1.4,1.7,1.4,2.8c0,1.3-0.7,2.5-1.9,3.2c0.3,1.4,2,9.5,9.5,17.3c6.9,7.2,15.8,6.4,28.6,11.3
		c14.4,5.6,17.6,18.2,17.3,33.8l2.3,0.4v-5.2h-1.2l-0.8-2.2l0,0l0.8-2.2h1.2v-2h-1l-0.8-1.7l0,0l0.8-1.7h1v-2.6
		c0-0.2,0.2-0.4,0.4-0.4h4c0.2,0,0.4,0.2,0.4,0.4v1.4h0v1.2h1l0.8,1.7l0,0l-0.8,1.7h-1v2h1.3l0.8,2.2l0,0l-0.8,2.2h-1.3v6.2l4.8,4.7
		h0l0,0h0h0l-4.8,4.7V185l4.8,4.7h0h0l-4.8,4.7v21.5l4.8,4.7h0l0,0l-4.8,4.7V264h27.7v-11.7l-4.8-5.1l4.8-4.6h0l7.4-33.7l1.8-8.3
		l9.3,41.9v0l0,0l4.8,4.6l-4.8,5.1l0,0v15.4l28.1,5.7V15.5H156.3L156.3,15.5z"/>
	<path class="st3" d="M43.6,242.6L43.6,242.6L43.6,242.6L43.6,242.6L43.6,242.6L43.6,242.6z M15.5,15.5v257.8l28.1-5.7v-15.4
		l-4.8-5.1l4.8-4.6h0l7.5-33.9l1.8-8l9.3,41.9v0l0,0l4.8,4.6l-4.8,5.1l0,0V264l12.1,0l0,0h15.6l0-28.4l0-10.2l0,0l-5-4.8l0,0l0,0h0
		l5-4.8l0,0v-21.2l-0.1,0l-5-4.8l0,0l5.1-4.9h0v-74.1l0,0l-5-4.8h0h0l0,0h0l5-4.8l0,0v-6h-1.2l-0.8-2.2l0,0l0.8-2.2h1.2v-2h-1L88,87
		l0,0l0.8-1.7h1v-2.6c0-0.2,0.2-0.4,0.4-0.4h4c0.2,0,0.4,0.2,0.4,0.4v1.4h0v1.2h1l0.8,1.7l0,0l-0.8,1.7h-1v2h1.2l0.8,2.2l0,0
		l-0.8,2.2h-1.2v5.1l2.3-0.4c0,0,0,0,0,0c-0.3-15.5,2.8-28.1,17.3-33.7c12.8-4.9,21.7-4.1,28.6-11.3c7.5-7.8,9.3-15.9,9.5-17.3
		c-1.1-0.7-1.9-1.9-1.9-3.3c0-1.1,0.5-2.1,1.4-2.9c0.2-0.7,0.3-1.4,0.3-2.1c0-1-0.2-2-0.6-2.9c-0.2-0.3-0.3-0.6-0.3-0.9
		c0-0.8,0.6-1.5,1.6-1.9c-0.3-0.3-0.4-0.7-0.4-1.2c0-0.7,0.4-1.3,1.1-1.7l0.5-5.1H15.5L15.5,15.5z M15.5,294.6L15.5,294.6l0-21h0
		V294.6L15.5,294.6z"/>
	<path class="st4" d="M167.9,103.6c-4.6-5.7-9.9-10.3-12.9-11.6c-3,1.3-8,5.6-12.9,11.6c-4.2,5.1-5.9,10.3-5.8,14.8v61.1H174v-61.1
		C174,113.3,172.1,109,167.9,103.6L167.9,103.6z"/>
	<path class="st0" d="M161.7,115.6c-1.3-2.4-3.5-4.4-4.7-5l-0.1,53.8l-7.8,0l-2.8,5.6h17.4v-47.5
		C163.8,122.5,163.9,119.8,161.7,115.6L161.7,115.6z"/>
	<path class="st4" d="M151.6,185.1h-15.4v22.4h15.4c-5-1.4-8.7-5.9-8.7-11.2C142.9,191,146.6,186.6,151.6,185.1L151.6,185.1z
		 M158.6,185.1c5,1.4,8.7,5.9,8.7,11.2c0,5.3-3.6,9.7-8.6,11.2H174v-22.4H158.6L158.6,185.1z"/>
	<path class="st4" d="M156.7,197l-1.6-9.8l-1.4,8.7l-8.7,1.5l9.8,1.6c0.1,0,0.2,0,0.3,0c0.9,0,1.7-0.7,1.7-1.7
		C156.7,197.2,156.7,197.1,156.7,197L156.7,197z"/>
	<path class="st4" d="M204.7,130.5l0,0.8v41.5l-10-2v-45.2c0,0,0.3-3.9,1.4-7c1.2-3.6,3.6-5.9,3.6-5.9s2.6,3.3,4.1,8.7
		C204.8,125.6,204.7,130.5,204.7,130.5L204.7,130.5z M204.6,208.9l-10-2v-14.4l10,2V208.9L204.6,208.9z M153.9,34.4
		c-1.1,0-2-0.7-2-1.6c0-0.5,0.3-0.9,0.7-1.2c1.8-1.2,1.3-5,0.4-6.2c-0.3-0.2-0.4-0.4-0.4-0.7c0-0.6,0.7-1.1,1.6-1.1
		c0.9,0,1.6,0.5,1.6,1.1c0,0.2-0.1,0.3-0.2,0.5c-1,2-0.9,4.2,0.3,7c0.1,0.2,0.2,0.4,0.2,0.6C155.9,33.6,155,34.4,153.9,34.4
		L153.9,34.4z M266.6,278.2v-26l0,0l4.8-5.1l-4.8-4.6l0,0v0l-9.3-41.9v49.8l-9.3-7.9l0,0v0l0,0l-4.8,4.6l4.8,5.1V264h-27.7v-38.8
		l4.8-4.7l0,0h0l-4.8-4.7v-21.5l4.8-4.7h0h0l-4.8-4.7v-74.4l4.8-4.7h0h0l0,0h0l-4.8-4.7v-6.2h1.3l0.8-2.2l0,0l-0.8-2.2h-1.3v-2h1
		l0.8-1.7l0,0l-0.8-1.7h-1v-1.2h0v-1.4c0-0.2-0.2-0.4-0.4-0.4h-4c-0.2,0-0.4,0.2-0.4,0.4v2.6h-1l-0.8,1.7l0,0l0.8,1.7h1v2h-1.2
		l-0.8,2.2l0,0l0.8,2.2h1.2v5.2l-2.3-0.4c0.3-15.5-2.8-28.2-17.3-33.8c-12.8-4.9-21.7-4.1-28.6-11.3c-7.5-7.8-9.3-15.9-9.5-17.3
		c1.1-0.7,1.9-1.9,1.9-3.2c0-1.1-0.5-2.1-1.4-2.8c-0.2-0.7-0.3-1.4-0.3-2.1c0-1,0.2-2,0.6-2.9c0.2-0.3,0.3-0.6,0.3-0.9
		c0-0.8-0.6-1.5-1.6-1.9c0.3-0.3,0.4-0.7,0.4-1.2c0-0.7-0.4-1.3-1.1-1.7l-0.5-5.1h-1.2v5c0.3,0.1,0.5,0.3,0.5,0.5
		c0,0.3-0.4,0.6-0.9,0.6c-0.5,0-1-0.3-1-0.6c0-0.2,0.2-0.4,0.5-0.5l0.5-5h-0.8l-0.5,5.1c-0.7,0.4-1.1,1-1.1,1.7
		c0,0.4,0.2,0.8,0.4,1.2c-1,0.4-1.6,1.1-1.6,1.9c0,0.3,0.1,0.6,0.3,0.9c0.4,0.9,0.6,1.9,0.6,2.9c0,0.7-0.1,1.4-0.3,2.1
		c-0.8,0.7-1.4,1.7-1.4,2.9c0,1.3,0.7,2.5,1.9,3.3c-0.3,1.4-2,9.5-9.5,17.3c-6.9,7.2-15.8,6.4-28.6,11.3
		c-14.4,5.6-17.6,18.2-17.3,33.7l2.9-0.6c-0.2-10-0.6-24.5,26.8-31.6c19.8-5.1,24.8-13.6,27.3-29.5c0.3,0.1,0.6,0.1,1,0.1
		c0.7,9,2.6,19.8,10.2,25.8c13.7,10.9,17.6,13.6,18.6,29.7l5,4.8l0,0l0,0l0,0l-4.7,4.5v74.3l4.7,4.5l-4.7,4.5V207l4.7,4.5l-4.7,4.5
		v60.3L174,268v-54.4h-37.8v50.7l-38,22.6v-63.4l30.2-7l-5-4.8l-38.7,9l5,4.8l0,0l0,38.6h0v13.8H70.3l3.9-13.7H62.1v-11.7l0,0
		l4.8-5.1l-4.8-4.6l0,0v0l-9.3-41.9v49.8l-9.3-7.9l0,0v0l0,0l-4.8,4.6l4.8,5.1v26l-28.1-4.6v21h279.1v-21L266.6,278.2L266.6,278.2z"
		/>
	<path class="st4" d="M114.2,118.6c-1.2-3.6-3.6-5.9-3.6-5.9s-2.6,3.3-4.1,8.7c-1.2,4.3-1,9.2-1,9.2v42.3l10-2v-45.2
		C115.5,125.5,115.2,121.7,114.2,118.6L114.2,118.6z"/>
	<polygon class="st4" points="115.5,206.9 115.5,192.5 105.5,194.5 105.5,208.9 115.5,206.9 	"/>
	<path class="st4" d="M84.6,189.7L84.6,189.7L84.6,189.7L84.6,189.7L84.6,189.7z M123.3,181.9l-38.7,7.8l5,4.8l38.7-7.8L123.3,181.9
		L123.3,181.9L123.3,181.9z M89.7,110.8v74.1l8.4-1.7v-74l30.2-5.8l-5-4.8l-38.7,7.4L89.7,110.8L89.7,110.8L89.7,110.8z"/>
	<path class="st4" d="M94.5,83.1h-0.4l0,0h-2.3c-0.2,0-0.4,0.2-0.4,0.4v1.8h3.1V83.1L94.5,83.1z"/>
	<polygon class="st4" points="91.4,88.6 91.4,90.6 94.5,90.6 94.5,88.6 95.5,88.6 96.3,87 94.5,87 94.5,87 91.4,87 91.4,87 88,87 
		88.8,88.6 91.4,88.6 	"/>
	<polygon class="st4" points="91.4,95.1 91.4,97.8 89.8,98.2 89.8,101.1 94.5,100.2 94.5,97.3 94.5,97.3 94.5,95.1 95.8,95.1 
		96.6,92.8 94.5,92.8 94.5,92.8 91.4,92.8 91.4,92.8 87.7,92.8 88.5,95.1 91.4,95.1 	"/>
</g>
</svg>
